<?xml version="1.0" standalone="no"?>
<!DOCTYPE svg PUBLIC "-//W3C//DTD SVG 20010904//EN"
 "http://www.w3.org/TR/2001/REC-SVG-20010904/DTD/svg10.dtd">
<svg version="1.0" xmlns="http://www.w3.org/2000/svg"
 width="1280.000000pt" height="1280.000000pt" viewBox="0 0 1280.000000 1280.000000"
 preserveAspectRatio="xMidYMid meet">
<metadata>
Created by potrace 1.15, written by Peter Selinger 2001-2017
</metadata>
<g transform="translate(0.000000,1280.000000) scale(0.100000,-0.100000)"
fill="#000000" stroke="none">
<path d="M0 6400 l0 -6400 1775 0 1775 0 0 28 c0 42 -46 127 -86 157 -19 14
-51 32 -71 39 l-38 13 39 13 c50 16 114 75 137 125 26 56 25 149 -2 200 -31
59 -65 91 -122 115 l-51 22 37 13 c95 32 157 122 157 225 -1 97 -50 172 -143
215 l-49 23 38 12 c49 16 113 75 135 125 56 122 -11 276 -138 320 l-36 13 48
21 c59 26 80 44 113 95 30 48 41 144 22 201 -17 53 -76 114 -134 140 -49 22
-49 22 -22 29 37 9 90 45 116 79 100 126 44 318 -107 371 l-38 13 39 13 c50
16 114 75 137 125 20 44 24 121 9 176 -15 53 -72 113 -132 139 l-52 22 37 13
c160 55 210 269 91 389 -16 16 -51 39 -79 51 l-49 22 39 13 c53 17 120 83 141
136 24 62 15 157 -19 211 -30 48 -66 78 -113 95 -19 6 -34 15 -34 18 0 3 15
12 34 18 83 30 136 104 144 197 2 37 -1 78 -8 100 -17 53 -76 114 -134 140
-49 22 -49 22 -22 29 94 24 166 122 166 229 0 98 -76 204 -161 222 -35 8 -30
20 10 28 40 8 110 72 132 122 21 45 24 121 8 179 -13 49 -97 134 -139 142 -42
9 -46 21 -11 29 87 19 161 123 161 224 -1 98 -50 173 -143 216 l-49 23 38 12
c49 16 113 75 135 125 54 117 -9 274 -126 316 -19 7 -35 16 -35 19 0 3 15 12
34 18 47 17 83 47 113 95 34 54 43 149 19 211 -20 53 -88 119 -140 136 l-38
12 49 23 c93 43 142 118 143 216 0 100 -62 189 -158 223 -31 12 -34 15 -17 21
79 26 147 90 165 154 16 59 12 131 -11 178 -24 50 -92 112 -132 120 -39 8 -42
20 -8 28 50 11 108 62 137 120 22 47 26 65 22 119 -6 92 -44 150 -125 192
l-61 32 43 17 c52 19 118 87 135 140 19 57 8 153 -22 201 -33 51 -54 69 -113
95 l-48 21 36 13 c127 44 194 198 138 320 -22 50 -86 109 -135 125 l-38 12 49
23 c93 43 142 118 143 216 0 100 -62 189 -158 223 -32 12 -34 15 -17 21 81 28
147 90 165 154 15 55 11 132 -9 177 -22 48 -90 109 -140 125 l-36 12 38 13
c151 52 208 253 105 374 -24 29 -83 68 -112 76 l-30 7 50 22 c116 53 169 169
134 296 -15 53 -72 113 -132 139 l-52 22 36 12 c52 18 96 53 125 99 34 54 43
149 19 211 -20 53 -88 119 -140 136 l-38 12 49 23 c129 61 179 198 117 323
-28 57 -73 97 -131 117 l-37 13 52 22 c60 26 117 86 132 139 15 55 11 132 -9
176 -22 50 -92 114 -132 122 -39 8 -45 19 -13 27 80 20 164 123 164 201 l0 25
-1775 0 -1775 0 0 -6400z m3104 6292 c10 -31 69 -84 119 -107 l49 -23 -34 -11
c-46 -15 -105 -66 -127 -109 l-19 -36 -20 41 c-12 22 -42 59 -68 80 l-46 40
35 22 c34 21 87 87 87 109 0 19 18 14 24 -6z m-453 -68 c13 -15 37 -35 52 -44
l28 -18 -35 -21 c-19 -12 -44 -34 -55 -49 l-19 -27 -24 30 c-12 16 -32 37 -44
47 -20 18 -20 18 20 62 23 25 44 45 47 45 3 1 16 -11 30 -25z m-471 -39 l23
-24 -24 -20 c-30 -25 -32 -25 -53 -2 -17 18 -17 21 -1 45 21 32 26 32 55 1z
m967 -427 c14 -15 48 -37 77 -49 51 -22 51 -22 22 -30 -45 -12 -105 -59 -130
-101 l-23 -38 -31 49 c-17 26 -47 59 -67 72 -19 13 -35 26 -35 29 1 3 15 14
33 25 18 11 48 44 67 73 l34 52 14 -27 c8 -16 26 -40 39 -55z m-499 -6 c15
-15 38 -35 51 -45 l25 -16 -49 -43 c-27 -24 -51 -43 -55 -43 -3 0 -23 19 -44
43 l-38 42 38 44 c22 24 41 45 42 45 2 1 16 -12 30 -27z m-448 -62 c0 -6 -47
-50 -54 -50 -2 0 -11 11 -20 25 -16 24 -16 27 1 49 l18 23 27 -20 c16 -12 28
-24 28 -27z m900 -340 c0 -22 78 -95 124 -115 l48 -21 -46 -18 c-42 -16 -126
-94 -126 -117 0 -20 -17 -7 -32 25 -9 18 -36 51 -61 72 l-44 38 47 43 c26 23
53 56 60 73 12 29 30 41 30 20z m-444 -80 c19 -21 44 -42 55 -45 17 -6 15 -10
-20 -35 -21 -16 -46 -39 -55 -52 -17 -23 -17 -23 -28 -3 -6 11 -27 34 -45 51
l-34 31 25 16 c13 9 33 30 42 47 10 16 20 30 21 30 2 0 19 -18 39 -40z m-478
-33 l22 -23 -25 -24 c-24 -23 -25 -23 -45 -5 -24 22 -25 33 -3 57 21 23 25 23
51 -5z m1006 -456 c20 -13 48 -26 62 -30 25 -6 23 -8 -32 -37 -42 -21 -68 -43
-90 -76 l-31 -46 -34 51 c-19 29 -48 61 -66 72 -18 11 -32 22 -32 25 -1 3 15
15 35 28 20 13 49 45 66 72 l31 50 27 -44 c15 -23 44 -53 64 -65z m-538 26
c11 -12 33 -32 49 -44 l30 -22 -25 -18 c-14 -9 -37 -31 -52 -47 -15 -17 -29
-28 -30 -25 -2 2 -21 23 -42 46 l-39 42 39 45 c21 24 42 45 45 45 3 1 14 -9
25 -22z m-470 -42 l26 -24 -28 -24 -28 -24 -19 23 c-17 22 -17 25 -1 49 9 14
18 25 20 25 1 0 15 -11 30 -25z m991 -444 c21 -17 53 -36 71 -42 l34 -11 -49
-23 c-50 -23 -109 -76 -119 -107 -6 -19 -24 -25 -24 -8 0 21 -51 86 -85 109
l-35 24 45 39 c25 22 55 59 67 81 l20 41 19 -36 c10 -20 35 -50 56 -67z m-520
9 c14 -17 39 -38 56 -47 28 -14 29 -16 11 -25 -10 -6 -36 -27 -56 -46 l-37
-35 -44 47 c-44 47 -44 47 -23 61 11 8 30 28 41 45 11 16 21 30 23 30 2 0 15
-14 29 -30z m-470 -42 l23 -22 -22 -23 c-27 -29 -34 -29 -54 2 -16 24 -16 27
1 45 22 25 24 25 52 -2z m1004 -452 c18 -12 48 -28 64 -33 27 -10 28 -11 10
-18 -68 -23 -118 -63 -145 -115 l-18 -34 -20 40 c-20 40 -83 104 -102 104 -21
0 -9 19 25 40 19 12 49 43 66 70 l32 49 26 -40 c15 -22 43 -50 62 -63z m-530
18 c13 -15 37 -35 52 -44 l28 -18 -35 -21 c-19 -12 -44 -34 -55 -49 l-20 -27
-16 23 c-9 12 -28 33 -42 46 l-26 24 39 46 c21 25 42 45 45 46 3 0 16 -12 30
-26z m-471 -39 l23 -24 -24 -20 c-30 -25 -32 -25 -53 -2 -17 18 -17 21 -1 45
21 32 26 32 55 1z m967 -427 c14 -15 48 -37 77 -49 l51 -22 -37 -13 c-52 -18
-96 -53 -122 -97 l-23 -37 -31 49 c-17 26 -47 59 -67 72 -34 24 -44 39 -25 39
19 0 82 64 102 104 l20 40 15 -30 c9 -16 27 -41 40 -56z m-494 -11 c18 -19 41
-39 52 -45 18 -10 16 -13 -30 -54 -27 -24 -51 -43 -55 -43 -3 0 -23 19 -44 43
l-38 42 38 44 c22 24 40 45 42 45 2 1 18 -14 35 -32z m-474 -38 l25 -20 -27
-25 c-14 -13 -28 -24 -30 -24 -3 0 -12 12 -22 26 -16 24 -16 27 1 45 21 23 23
23 53 -2z m921 -359 c0 -22 78 -95 124 -115 l48 -21 -46 -18 c-42 -16 -126
-94 -126 -117 0 -5 -4 -9 -10 -9 -5 0 -10 7 -10 16 0 8 -26 42 -58 73 l-57 58
43 38 c24 21 51 53 60 71 15 33 32 45 32 24z m-444 -80 c19 -21 44 -42 55 -45
17 -6 15 -10 -20 -35 -21 -16 -46 -39 -55 -52 l-16 -22 -17 24 c-10 14 -30 37
-46 51 l-28 26 25 16 c13 9 33 30 42 47 10 16 20 30 21 30 2 0 19 -18 39 -40z
m-478 -33 l22 -23 -25 -24 c-24 -23 -25 -23 -45 -5 -24 22 -25 33 -3 57 21 23
25 23 51 -5z m1015 -461 c24 -14 51 -26 60 -26 10 0 17 -4 17 -10 0 -5 -7 -10
-17 -10 -32 0 -105 -52 -132 -95 l-28 -44 -34 52 c-19 29 -48 61 -66 72 -18
11 -32 22 -32 25 -1 3 15 15 35 28 20 13 49 45 66 72 l31 50 28 -44 c15 -25
47 -56 72 -70z m-543 26 c14 -15 36 -35 50 -45 l24 -17 -24 -17 c-14 -10 -37
-31 -52 -47 -15 -17 -29 -28 -30 -25 -2 2 -21 23 -42 46 l-39 42 39 45 c21 24
41 45 44 45 3 1 17 -12 30 -27z m-450 -61 c0 -4 -12 -16 -28 -28 l-27 -20 -18
23 c-17 23 -17 25 0 48 l18 24 28 -20 c15 -11 27 -23 27 -27z m963 -416 c22
-19 58 -41 81 -49 22 -8 33 -15 23 -15 -46 -2 -167 -97 -167 -131 0 -6 -4 -10
-10 -10 -5 0 -10 5 -10 11 0 19 -53 86 -87 109 l-33 23 45 39 c25 22 55 59 66
81 l21 40 15 -32 c9 -18 34 -47 56 -66z m-516 5 c14 -17 39 -38 55 -46 l30
-16 -29 -17 c-16 -10 -41 -33 -57 -52 -26 -31 -29 -32 -39 -13 -6 10 -23 32
-39 47 -15 16 -28 31 -28 33 0 3 16 21 35 41 19 20 35 40 35 45 0 15 11 8 37
-22z m-470 -42 l23 -22 -22 -23 c-27 -29 -34 -29 -54 2 -16 24 -16 27 1 45 22
25 24 25 52 -2z m1004 -452 c18 -12 48 -28 64 -33 27 -10 28 -11 10 -18 -68
-23 -118 -63 -145 -115 l-18 -34 -21 41 c-11 23 -41 59 -65 79 l-45 38 37 27
c20 15 50 48 66 73 l28 45 27 -40 c15 -22 43 -50 62 -63z m-530 18 c13 -15 37
-35 52 -44 l28 -18 -35 -21 c-19 -12 -44 -34 -55 -49 -11 -15 -21 -25 -23 -22
-2 3 -20 24 -42 47 l-39 42 39 45 c22 25 42 45 45 46 3 0 16 -12 30 -26z
m-474 -38 l27 -25 -25 -20 c-30 -25 -32 -25 -53 -2 -17 18 -17 21 -1 45 10 14
19 26 22 26 2 0 16 -11 30 -24z m970 -428 c14 -15 48 -37 77 -49 l51 -22 -30
-10 c-48 -16 -97 -53 -126 -96 l-26 -40 -31 48 c-18 27 -47 59 -67 72 -34 24
-44 39 -25 39 19 0 82 64 102 104 l20 40 15 -30 c9 -16 27 -41 40 -56z m-499
-6 c15 -15 38 -35 51 -45 l25 -16 -49 -43 c-27 -24 -51 -43 -55 -43 -3 0 -23
19 -44 43 l-38 42 38 44 c22 24 41 45 42 45 2 1 16 -12 30 -27z m-469 -43 l25
-20 -27 -25 c-14 -13 -28 -24 -30 -24 -3 0 -12 12 -22 26 -16 24 -16 27 1 45
21 23 23 23 53 -2z m921 -359 c0 -21 77 -94 123 -115 l47 -22 -43 -17 c-46
-17 -97 -63 -121 -110 l-14 -28 -21 40 c-11 22 -41 58 -66 80 l-45 39 33 23
c34 23 87 90 87 109 0 6 5 11 10 11 6 0 10 -4 10 -10z m-379 -130 c7 0 -6 -13
-28 -29 -23 -16 -48 -40 -57 -53 l-16 -22 -17 24 c-10 14 -30 37 -46 51 l-28
26 25 16 c13 9 33 30 42 46 l18 30 47 -44 c27 -25 54 -45 60 -45z m-543 17
l22 -23 -25 -24 c-24 -23 -25 -23 -45 -5 -24 22 -25 33 -3 57 21 23 25 23 51
-5z m1015 -461 c24 -14 51 -26 60 -26 10 0 17 -4 17 -10 0 -5 -7 -10 -17 -10
-32 0 -105 -52 -132 -96 l-28 -44 -31 50 c-17 27 -46 59 -66 72 -20 13 -36 25
-36 28 0 3 16 15 36 28 20 13 49 45 66 72 l31 50 28 -44 c15 -25 47 -56 72
-70z m-547 31 c11 -12 33 -32 49 -45 l29 -23 -25 -17 c-13 -9 -36 -30 -51 -46
-15 -17 -29 -28 -30 -25 -2 2 -21 23 -42 46 l-39 42 39 45 c21 24 42 45 45 45
3 1 14 -9 25 -22z m-446 -67 c0 -3 -12 -15 -28 -27 l-27 -20 -18 23 c-17 23
-17 25 0 48 l18 23 27 -20 c16 -12 28 -24 28 -27z m914 -359 c21 -39 77 -87
122 -101 l38 -13 -49 -22 c-47 -20 -125 -93 -125 -115 0 -6 -4 -10 -10 -10 -5
0 -10 5 -10 11 0 19 -53 86 -87 109 l-33 22 49 44 c27 24 54 57 61 74 16 37
25 38 44 1z m-467 -51 c14 -17 39 -38 55 -46 l30 -16 -29 -17 c-16 -10 -41
-33 -57 -52 -26 -31 -29 -32 -39 -13 -6 10 -25 33 -44 51 l-34 32 23 15 c13 9
32 29 43 46 11 16 21 30 23 30 2 0 15 -14 29 -30z m-470 -42 l23 -22 -22 -23
c-27 -29 -34 -29 -54 2 -16 24 -16 27 1 45 22 25 24 25 52 -2z m995 -448 c15
-11 44 -27 65 -34 l38 -13 -51 -22 c-55 -24 -92 -58 -117 -105 l-15 -30 -20
40 c-20 40 -83 104 -102 104 -19 0 -9 15 25 39 20 13 49 45 67 72 l31 48 26
-39 c14 -21 38 -48 53 -60z m-498 -6 l49 -45 -24 -17 c-13 -9 -37 -29 -52 -45
-15 -17 -29 -28 -30 -26 -1 2 -19 23 -41 46 l-39 42 39 45 c22 25 41 45 44 45
3 0 27 -20 54 -45z m-497 -18 l27 -25 -25 -20 c-30 -25 -32 -25 -53 -2 -17 18
-17 21 -1 45 10 14 19 26 22 26 2 0 16 -11 30 -24z m990 -446 c21 -17 50 -34
66 -37 38 -8 42 -20 11 -27 -42 -11 -96 -52 -125 -95 l-26 -40 -32 49 c-17 27
-47 58 -66 70 -34 21 -46 40 -25 40 19 0 82 64 102 104 l20 40 19 -36 c10 -20
36 -50 56 -68z m-524 16 c9 -13 32 -34 53 -46 33 -21 34 -24 18 -33 -11 -5
-36 -26 -56 -45 -22 -21 -41 -32 -46 -27 -4 6 -22 27 -41 47 l-34 37 39 45
c21 24 42 45 45 45 4 1 14 -10 22 -23z m-466 -48 l23 -22 -22 -23 c-27 -29
-32 -29 -53 3 -16 24 -16 27 1 45 21 24 23 24 51 -3z m923 -358 c0 -21 77 -94
123 -115 l47 -22 -43 -17 c-46 -17 -95 -63 -120 -110 l-15 -30 -20 41 c-12 22
-42 59 -67 81 l-45 39 33 23 c34 23 87 90 87 109 0 6 5 11 10 11 6 0 10 -4 10
-10z m-386 -128 c18 -9 17 -11 -11 -25 -17 -9 -43 -31 -57 -48 l-27 -32 -17
24 c-9 13 -27 34 -39 45 -13 12 -23 24 -23 26 0 3 16 22 35 42 19 21 35 43 35
49 0 6 19 -7 43 -30 23 -22 51 -45 61 -51z m-536 15 l22 -23 -25 -24 c-24 -23
-25 -23 -45 -5 -24 22 -25 29 -3 55 22 25 25 25 51 -3z m995 -448 c23 -17 54
-33 70 -36 29 -6 37 -23 10 -23 -32 0 -105 -52 -132 -96 l-28 -44 -31 50 c-17
27 -46 59 -66 72 -20 13 -36 25 -36 28 0 3 16 15 36 28 20 13 50 46 67 73 l31
50 18 -35 c10 -20 38 -50 61 -67z m-523 13 c14 -15 36 -35 49 -45 l25 -16 -28
-22 c-15 -12 -39 -33 -52 -48 -13 -14 -25 -23 -26 -20 -2 2 -21 23 -42 46
l-39 42 39 45 c21 24 41 45 44 45 3 1 17 -12 30 -27z m-450 -63 c0 -4 -12 -16
-27 -27 l-28 -20 -18 24 c-17 23 -17 25 0 48 l18 23 27 -20 c16 -12 28 -24 28
-28z m900 -338 c0 -23 84 -101 126 -117 l46 -18 -48 -21 c-46 -20 -124 -93
-124 -115 0 -6 -4 -10 -10 -10 -5 0 -10 5 -10 11 0 19 -53 86 -87 109 l-33 22
49 44 c27 24 54 57 61 74 12 28 30 41 30 21z m-462 -61 c7 -11 30 -33 51 -48
l39 -29 -28 -16 c-16 -10 -40 -32 -55 -49 -26 -30 -28 -31 -38 -12 -6 10 -25
33 -44 51 l-34 32 23 15 c13 9 32 29 43 46 24 35 26 36 43 10z m-460 -53 l22
-23 -25 -24 c-24 -23 -25 -23 -45 -5 -24 22 -25 33 -3 57 21 23 25 23 51 -5z
m994 -447 c15 -11 44 -27 65 -34 l38 -13 -51 -22 c-55 -24 -92 -58 -117 -105
l-15 -30 -20 40 c-20 40 -83 104 -102 104 -20 0 -9 16 30 43 22 16 52 48 66
73 l26 44 26 -39 c15 -22 39 -49 54 -61z m-498 -6 l49 -45 -24 -17 c-13 -9
-37 -29 -52 -45 -15 -17 -29 -28 -30 -26 -1 2 -19 23 -41 46 l-39 42 39 45
c22 25 41 45 44 45 3 0 27 -20 54 -45z m-497 -18 l27 -25 -25 -20 c-30 -25
-32 -25 -53 -2 -17 18 -17 21 -1 45 10 14 19 26 22 26 2 0 16 -11 30 -24z
m975 -432 c24 -22 70 -48 102 -58 14 -5 5 -13 -42 -37 -45 -22 -68 -42 -89
-74 -28 -45 -43 -56 -43 -32 0 21 -46 77 -85 105 l-36 26 46 39 c25 22 55 58
67 80 l20 41 18 -34 c10 -19 29 -44 42 -56z m-509 2 c9 -13 32 -34 53 -46 33
-21 34 -24 18 -33 -11 -5 -36 -26 -56 -45 -22 -21 -41 -32 -46 -27 -4 6 -22
27 -41 47 l-34 37 39 45 c21 24 42 45 45 45 4 1 14 -10 22 -23z m-464 -47 l24
-20 -23 -24 c-29 -31 -34 -31 -55 1 -16 24 -16 27 1 45 21 23 23 23 53 -2z
m921 -359 c0 -22 78 -94 123 -116 l49 -22 -34 -11 c-46 -15 -105 -66 -127
-109 l-19 -36 -20 41 c-12 22 -42 58 -67 80 l-46 39 36 26 c39 28 85 84 85
105 0 7 5 13 10 13 6 0 10 -4 10 -10z m-449 -76 c13 -15 37 -35 52 -44 l28
-18 -35 -21 c-20 -13 -45 -34 -56 -48 l-21 -27 -16 23 c-9 13 -28 34 -42 47
l-27 24 40 45 c23 24 44 45 47 45 3 0 16 -12 30 -26z m-473 -37 l22 -23 -25
-24 -25 -24 -21 21 c-20 20 -20 22 -4 47 21 32 26 32 53 3z m969 -429 c14 -15
48 -37 77 -49 50 -22 50 -22 24 -30 -49 -13 -100 -51 -128 -95 l-27 -44 -31
50 c-17 27 -46 59 -66 72 -35 22 -46 38 -26 38 19 0 82 64 102 104 l20 40 15
-30 c9 -16 27 -41 40 -56z m-497 -6 c14 -15 36 -36 50 -45 25 -18 25 -18 5
-33 -11 -8 -35 -28 -53 -46 -18 -17 -33 -29 -35 -27 -1 2 -20 23 -41 46 l-39
42 39 45 c21 24 41 45 44 45 3 1 17 -12 30 -27z m-450 -60 c0 -6 -52 -54 -54
-50 -1 2 -9 13 -20 25 -17 21 -17 22 0 46 l19 24 27 -20 c16 -12 28 -23 28
-25z m900 -341 c0 -24 85 -101 131 -119 l50 -18 -40 -13 c-46 -13 -102 -58
-128 -102 -19 -32 -33 -38 -33 -13 0 8 -26 42 -58 73 l-57 58 43 38 c24 21 51
53 60 71 15 32 32 45 32 25z m-462 -61 c7 -11 30 -33 51 -48 l39 -29 -28 -16
c-16 -10 -40 -32 -55 -49 -26 -30 -28 -31 -38 -12 -6 10 -25 33 -44 51 -31 30
-32 33 -15 42 10 5 30 26 43 45 28 42 30 42 47 16z m-460 -53 l22 -23 -25 -24
c-24 -23 -25 -23 -45 -5 -24 22 -25 33 -3 57 21 23 25 23 51 -5z m992 -445
c17 -13 47 -29 67 -36 l36 -12 -59 -30 c-43 -21 -67 -42 -90 -76 l-31 -46 -34
51 c-19 29 -48 61 -66 72 -18 11 -32 22 -32 25 -1 3 14 15 33 27 19 12 48 44
67 72 l32 51 23 -37 c12 -21 36 -48 54 -61z m-496 -8 l49 -45 -24 -17 c-13 -9
-37 -29 -52 -45 -15 -17 -29 -28 -30 -26 -1 2 -19 23 -41 46 l-39 42 39 45
c22 25 41 45 44 45 3 0 27 -20 54 -45z m-499 -16 c31 -27 31 -32 -1 -53 -25
-16 -27 -16 -46 3 -20 20 -20 20 -2 46 11 14 20 26 21 26 2 0 14 -10 28 -22z
m978 -435 c17 -18 50 -40 74 -49 l43 -17 -47 -23 c-60 -29 -74 -41 -105 -86
l-25 -37 -32 49 c-17 27 -47 58 -67 70 l-35 22 46 40 c25 22 55 59 67 81 l20
41 15 -30 c9 -16 29 -44 46 -61z m-512 3 c11 -14 35 -35 55 -47 33 -20 34 -23
18 -32 -11 -5 -36 -26 -56 -45 l-37 -35 -44 47 c-44 47 -44 47 -23 61 11 8 30
28 41 45 11 16 22 30 24 30 2 0 12 -11 22 -24z m-462 -47 l24 -20 -23 -24
c-29 -31 -36 -31 -56 0 -16 24 -16 27 1 45 22 24 24 24 54 -1z"/>
<path d="M3577 12768 c20 -109 103 -180 212 -181 111 -1 186 64 215 186 l6 27
-220 0 -219 0 6 -32z"/>
<path d="M4070 12780 c0 -27 26 -89 48 -113 31 -35 94 -60 149 -60 93 0 171
65 188 156 l7 37 -196 0 c-190 0 -196 -1 -196 -20z"/>
<path d="M4560 12783 c1 -31 37 -99 64 -121 61 -47 146 -52 211 -12 32 20 68
75 79 123 l6 27 -180 0 c-165 0 -180 -1 -180 -17z"/>
<path d="M5054 12768 c20 -102 139 -158 233 -110 46 24 72 59 80 108 l6 34
-163 0 -162 0 6 -32z"/>
<path d="M5544 12769 c20 -102 142 -148 228 -87 32 22 58 67 58 98 0 19 -5 20
-146 20 l-146 0 6 -31z"/>
<path d="M6030 12774 c0 -17 14 -40 39 -65 35 -35 44 -39 91 -39 47 0 56 4 91
39 25 25 39 48 39 65 l0 26 -130 0 -130 0 0 -26z"/>
<path d="M6510 12790 c0 -6 7 -24 15 -40 54 -105 196 -88 230 28 6 22 6 22
-119 22 -81 0 -126 -4 -126 -10z"/>
<path d="M7000 12779 c0 -12 15 -36 34 -55 38 -38 77 -44 126 -19 28 14 60 60
60 85 0 6 -40 10 -110 10 -105 0 -110 -1 -110 -21z"/>
<path d="M7480 12784 c0 -9 15 -31 34 -50 45 -45 95 -47 137 -5 16 16 29 39
29 50 0 20 -5 21 -100 21 -85 0 -100 -2 -100 -16z"/>
<path d="M7970 12780 c0 -34 44 -70 84 -70 39 0 80 31 91 68 6 22 5 22 -84 22
-85 0 -91 -1 -91 -20z"/>
<path d="M8450 12786 c0 -7 9 -25 21 -40 27 -35 86 -36 117 -3 12 13 22 31 22
40 0 15 -12 17 -80 17 -61 0 -80 -3 -80 -14z"/>
<path d="M8930 12787 c0 -27 40 -57 75 -57 22 0 41 8 55 22 37 39 27 48 -55
48 -55 0 -75 -3 -75 -13z"/>
<path d="M9410 12790 c0 -18 48 -60 67 -60 26 0 60 26 66 50 5 19 1 20 -64 20
-41 0 -69 -4 -69 -10z"/>
<path d="M9890 12790 c0 -19 40 -50 63 -50 25 0 57 28 57 48 0 8 -21 12 -60
12 -33 0 -60 -4 -60 -10z"/>
<path d="M10370 12792 c0 -32 73 -55 98 -30 26 26 13 38 -43 38 -30 0 -55 -4
-55 -8z"/>
<path d="M10850 12792 c0 -14 35 -42 53 -42 17 0 47 26 47 41 0 5 -22 9 -50 9
-27 0 -50 -4 -50 -8z"/>
<path d="M11330 12792 c0 -15 24 -32 45 -32 21 0 45 17 45 32 0 4 -20 8 -45 8
-25 0 -45 -4 -45 -8z"/>
<path d="M11812 12788 c8 -22 37 -34 55 -22 33 21 26 34 -17 34 -28 0 -40 -4
-38 -12z"/>
<path d="M12290 12790 c0 -17 33 -29 52 -19 29 16 21 29 -17 29 -19 0 -35 -4
-35 -10z"/>
<path d="M3693 12515 c-160 -80 -153 -311 12 -386 74 -34 173 -17 233 40 77
75 88 193 25 283 -33 48 -111 88 -173 88 -29 0 -65 -9 -97 -25z"/>
<path d="M4185 12506 c-38 -17 -90 -72 -104 -109 -37 -97 14 -211 111 -252
157 -65 318 96 253 253 -42 100 -164 151 -260 108z"/>
<path d="M4650 12480 c-96 -58 -119 -185 -47 -267 121 -138 348 -30 308 148
-19 86 -74 132 -164 136 -49 3 -69 -1 -97 -17z"/>
<path d="M5140 12468 c-82 -42 -110 -130 -69 -214 72 -151 299 -96 299 71 0
124 -121 199 -230 143z"/>
<path d="M5612 12450 c-43 -27 -72 -76 -72 -125 0 -136 164 -193 259 -91 35
38 41 122 12 169 -39 64 -134 86 -199 47z"/>
<path d="M6093 12440 c-88 -53 -82 -190 10 -233 43 -21 67 -21 112 -3 45 19
75 69 75 124 0 103 -110 165 -197 112z"/>
<path d="M6583 12435 c-60 -26 -87 -98 -58 -158 22 -47 59 -70 111 -69 54 0
88 24 108 73 26 63 2 124 -59 153 -40 19 -60 20 -102 1z"/>
<path d="M7065 12426 c-40 -17 -55 -37 -62 -80 -17 -105 95 -169 176 -100 59
49 47 144 -22 177 -42 20 -52 20 -92 3z"/>
<path d="M7530 12408 c-86 -58 -49 -178 54 -178 37 0 48 5 70 31 44 52 30 125
-29 154 -44 20 -56 19 -95 -7z"/>
<path d="M7999 12392 c-63 -56 -28 -153 56 -155 30 -1 43 5 66 31 16 18 29 41
29 52 0 51 -49 100 -99 100 -12 0 -35 -13 -52 -28z"/>
<path d="M8475 12385 c-44 -43 -31 -112 25 -135 35 -15 84 0 100 31 30 55 -10
129 -70 129 -19 0 -40 -9 -55 -25z"/>
<path d="M8955 12375 c-14 -13 -25 -36 -25 -50 0 -33 42 -75 75 -75 33 0 75
42 75 75 0 33 -42 75 -75 75 -14 0 -37 -11 -50 -25z"/>
<path d="M9430 12370 c-40 -40 -9 -110 50 -110 29 0 70 38 70 65 0 7 -9 24
-21 39 -25 32 -70 35 -99 6z"/>
<path d="M9915 12365 c-29 -28 -31 -42 -9 -73 17 -25 71 -31 92 -10 21 21 15
75 -10 92 -31 22 -45 20 -73 -9z"/>
<path d="M10384 12355 c-21 -33 -6 -72 31 -81 52 -13 86 53 47 89 -27 24 -59
21 -78 -8z"/>
<path d="M10883 12370 c-48 -19 -36 -90 16 -90 16 0 34 7 41 14 29 36 -13 93
-57 76z"/>
<path d="M11348 12359 c-32 -18 -11 -79 27 -79 7 0 21 7 29 16 9 8 16 22 16
29 0 17 -27 45 -43 45 -7 0 -20 -5 -29 -11z"/>
<path d="M11824 12355 c-25 -18 -11 -65 20 -65 30 0 50 23 41 48 -7 25 -39 34
-61 17z"/>
<path d="M12297 12354 c-15 -16 -7 -53 14 -59 30 -10 58 19 43 43 -12 18 -45
28 -57 16z"/>
<path d="M3727 12057 c-168 -53 -203 -280 -58 -382 39 -27 50 -30 121 -30 71
0 82 3 121 30 148 104 107 340 -67 384 -52 13 -68 13 -117 -2z"/>
<path d="M4207 12040 c-113 -36 -168 -169 -116 -278 53 -108 209 -137 299 -56
130 118 61 326 -113 340 -23 2 -55 -1 -70 -6z"/>
<path d="M4670 12014 c-45 -20 -68 -41 -91 -86 -67 -131 59 -286 201 -248 159
43 183 258 37 329 -51 25 -98 26 -147 5z"/>
<path d="M5130 11988 c-57 -39 -75 -72 -75 -138 0 -63 16 -95 69 -134 39 -29
133 -29 173 0 99 73 98 212 -1 273 -47 29 -122 28 -166 -1z"/>
<path d="M5620 11981 c-47 -25 -71 -60 -77 -114 -10 -86 55 -159 141 -159 88
0 146 57 146 143 0 110 -114 182 -210 130z"/>
<path d="M6125 11979 c-62 -19 -95 -64 -95 -131 0 -41 5 -54 34 -86 33 -35 38
-37 96 -37 58 0 63 2 96 37 28 32 34 45 34 84 0 25 -7 58 -16 74 -29 49 -95
75 -149 59z"/>
<path d="M6555 11937 c-19 -19 -37 -46 -41 -61 -16 -64 52 -146 120 -146 45 0
95 34 113 77 32 78 -27 163 -114 163 -38 0 -50 -5 -78 -33z"/>
<path d="M7034 11926 c-56 -56 -44 -135 26 -171 39 -20 69 -19 106 4 93 57 52
201 -58 201 -32 0 -47 -7 -74 -34z"/>
<path d="M7524 11932 c-95 -76 -3 -224 104 -168 38 20 52 44 52 91 0 76 -98
124 -156 77z"/>
<path d="M8003 11925 c-50 -35 -46 -123 7 -150 54 -28 99 -15 126 36 42 81
-58 167 -133 114z"/>
<path d="M8472 11907 c-69 -74 32 -179 112 -116 35 27 36 86 3 117 -32 30 -87
29 -115 -1z"/>
<path d="M8973 11920 c-70 -28 -45 -140 32 -140 24 0 39 7 54 26 34 43 26 86
-20 109 -32 17 -35 17 -66 5z"/>
<path d="M9435 11895 c-27 -26 -31 -46 -14 -76 36 -69 147 -17 119 55 -18 49
-68 59 -105 21z"/>
<path d="M9906 11888 c-21 -30 -20 -50 4 -76 24 -26 47 -28 78 -6 26 18 30 65
6 88 -23 24 -70 20 -88 -6z"/>
<path d="M10403 11900 c-50 -20 -32 -100 23 -100 51 0 73 66 32 94 -25 18 -25
18 -55 6z"/>
<path d="M10866 11881 c-22 -25 -13 -58 20 -73 46 -21 84 40 48 76 -21 21 -47
20 -68 -3z"/>
<path d="M11352 11884 c-37 -26 -23 -74 23 -74 43 0 59 44 27 73 -23 21 -22
21 -50 1z"/>
<path d="M11822 11878 c-28 -28 -1 -75 37 -63 11 3 23 15 26 26 12 38 -35 65
-63 37z"/>
<path d="M12300 11875 c-19 -23 -8 -50 22 -53 19 -2 28 2 33 18 12 39 -29 66
-55 35z"/>
<path d="M3692 11569 c-105 -53 -146 -182 -92 -289 35 -69 116 -120 190 -120
43 0 112 28 143 58 101 95 90 258 -21 337 -58 40 -156 47 -220 14z"/>
<path d="M4172 11549 c-120 -60 -137 -234 -32 -322 155 -131 386 45 301 228
-49 105 -164 145 -269 94z"/>
<path d="M4690 11548 c-104 -30 -159 -148 -114 -244 71 -149 293 -128 333 30
33 131 -90 251 -219 214z"/>
<path d="M5142 11524 c-154 -79 -99 -304 74 -304 158 0 213 196 82 293 -36 27
-114 32 -156 11z"/>
<path d="M5651 11520 c-18 -5 -49 -24 -69 -43 -44 -44 -54 -112 -25 -166 71
-135 273 -85 273 67 0 97 -84 163 -179 142z"/>
<path d="M6094 11491 c-46 -28 -64 -59 -64 -111 0 -63 27 -104 84 -125 44 -17
48 -17 92 0 57 22 84 62 84 126 0 101 -110 162 -196 110z"/>
<path d="M6572 11480 c-40 -25 -66 -81 -57 -126 3 -20 20 -45 41 -63 68 -60
168 -30 195 58 21 71 -40 151 -116 151 -16 0 -45 -9 -63 -20z"/>
<path d="M7053 11470 c-38 -23 -53 -48 -53 -90 0 -95 106 -146 179 -84 57 47
50 137 -13 175 -40 24 -73 24 -113 -1z"/>
<path d="M7550 11473 c-56 -20 -83 -89 -56 -141 20 -38 44 -52 91 -52 71 0
119 86 85 151 -19 35 -80 57 -120 42z"/>
<path d="M8015 11458 c-32 -19 -44 -40 -45 -81 0 -83 100 -120 154 -56 30 35
32 58 11 100 -23 44 -78 61 -120 37z"/>
<path d="M8475 11435 c-34 -33 -34 -83 0 -115 77 -72 185 41 110 115 -15 16
-36 25 -55 25 -19 0 -40 -9 -55 -25z"/>
<path d="M8952 11427 c-46 -49 -14 -121 53 -121 27 0 43 6 56 23 59 73 -45
166 -109 98z"/>
<path d="M9426 11418 c-21 -30 -20 -50 5 -82 26 -33 62 -34 95 0 45 44 14 104
-52 104 -23 0 -38 -7 -48 -22z"/>
<path d="M9912 11417 c-26 -28 -27 -45 -6 -75 18 -26 65 -30 88 -6 24 23 20
70 -6 88 -31 22 -51 20 -76 -7z"/>
<path d="M10385 11410 c-23 -25 -13 -67 20 -82 52 -23 100 46 59 86 -21 22
-57 20 -79 -4z"/>
<path d="M10870 11410 c-24 -24 -25 -43 -4 -64 30 -31 84 -9 84 34 0 17 -34
50 -52 50 -5 0 -17 -9 -28 -20z"/>
<path d="M11342 11408 c-18 -18 -15 -42 9 -64 22 -20 43 -13 63 19 23 36 -41
76 -72 45z"/>
<path d="M11820 11405 c-26 -32 13 -81 48 -59 23 15 26 38 7 58 -20 20 -39 20
-55 1z"/>
<path d="M12294 11395 c-14 -37 26 -69 53 -42 22 22 8 57 -23 57 -14 0 -27 -7
-30 -15z"/>
<path d="M3710 11104 c-95 -41 -151 -145 -130 -240 15 -65 41 -106 92 -140 38
-25 52 -29 118 -29 64 0 80 4 112 26 52 36 80 74 95 131 19 77 2 138 -56 198
-65 68 -152 88 -231 54z"/>
<path d="M4190 11084 c-145 -63 -163 -255 -32 -345 30 -20 48 -24 108 -24 65
0 76 3 111 31 76 60 102 157 64 239 -44 96 -156 140 -251 99z"/>
<path d="M4665 11066 c-128 -57 -140 -241 -21 -311 50 -29 130 -34 175 -10 94
48 125 180 63 264 -46 62 -146 88 -217 57z"/>
<path d="M5175 11060 c-111 -25 -161 -163 -91 -254 32 -43 101 -71 153 -63
144 24 184 227 58 298 -38 21 -81 28 -120 19z"/>
<path d="M5621 11032 c-47 -23 -72 -61 -78 -114 -10 -83 44 -148 128 -156 93
-9 159 49 159 139 0 111 -112 181 -209 131z"/>
<path d="M6101 11023 c-67 -33 -92 -124 -51 -190 68 -111 240 -64 240 66 0 58
-26 102 -73 124 -44 21 -73 21 -116 0z"/>
<path d="M6584 11011 c-100 -46 -92 -187 12 -221 134 -44 219 138 101 214 -38
25 -70 27 -113 7z"/>
<path d="M7044 10992 c-66 -53 -58 -149 16 -187 37 -19 54 -19 95 1 105 50 69
204 -48 204 -25 0 -51 -8 -63 -18z"/>
<path d="M7527 10989 c-9 -5 -24 -24 -33 -41 -41 -79 35 -166 120 -138 104 34
78 191 -31 190 -21 0 -46 -5 -56 -11z"/>
<path d="M8029 10988 c-43 -16 -59 -39 -59 -84 0 -35 5 -47 31 -68 17 -14 39
-26 49 -26 51 0 100 49 100 99 0 27 -45 78 -73 83 -13 3 -35 1 -48 -4z"/>
<path d="M8495 10978 c-75 -43 -49 -158 35 -158 82 0 112 118 39 155 -33 18
-47 18 -74 3z"/>
<path d="M8955 10955 c-30 -30 -32 -64 -4 -99 27 -34 71 -35 104 -1 14 13 25
36 25 50 0 33 -42 75 -75 75 -14 0 -37 -11 -50 -25z"/>
<path d="M9431 10944 c-26 -33 -27 -58 -1 -84 57 -57 150 15 103 79 -29 38
-74 40 -102 5z"/>
<path d="M9904 10935 c-34 -52 29 -115 81 -81 32 21 36 80 6 96 -34 18 -69 12
-87 -15z"/>
<path d="M10390 10940 c-11 -11 -20 -26 -20 -33 0 -24 31 -57 55 -57 50 0 73
60 37 93 -25 22 -48 21 -72 -3z"/>
<path d="M10860 10930 c-24 -44 17 -88 61 -67 27 14 37 51 19 73 -19 21 -67
18 -80 -6z"/>
<path d="M11346 10934 c-19 -18 -20 -28 -6 -55 20 -37 80 -15 80 30 0 14 -29
41 -45 41 -7 0 -21 -7 -29 -16z"/>
<path d="M11822 10928 c-18 -18 -14 -46 7 -58 25 -13 48 -4 56 21 12 38 -35
65 -63 37z"/>
<path d="M12302 10931 c-8 -4 -12 -19 -10 -32 4 -29 45 -34 61 -7 19 30 -19
60 -51 39z"/>
<path d="M3765 10643 c-122 -26 -188 -101 -188 -213 0 -122 91 -213 213 -213
189 0 285 228 153 365 -37 39 -131 71 -178 61z"/>
<path d="M4225 10621 c-89 -22 -145 -86 -153 -175 -8 -99 49 -180 146 -206 54
-14 100 -5 155 30 119 75 112 259 -11 327 -44 25 -96 34 -137 24z"/>
<path d="M4677 10596 c-21 -8 -48 -22 -59 -33 -29 -25 -58 -91 -58 -133 0 -41
29 -108 56 -132 85 -75 215 -56 271 40 85 144 -55 316 -210 258z"/>
<path d="M5145 10576 c-96 -42 -124 -171 -55 -250 39 -44 79 -60 139 -54 93 9
147 76 139 173 -3 29 -13 63 -24 78 -44 59 -131 83 -199 53z"/>
<path d="M5620 10557 c-56 -30 -83 -77 -77 -138 5 -61 36 -103 92 -124 101
-39 195 27 195 137 0 58 -30 104 -83 128 -55 25 -75 25 -127 -3z"/>
<path d="M6069 10521 c-35 -35 -39 -44 -39 -91 0 -47 4 -56 39 -91 35 -35 44
-39 91 -39 47 0 56 4 91 39 35 35 39 44 39 91 0 47 -4 56 -39 91 -35 35 -44
39 -91 39 -47 0 -56 -4 -91 -39z"/>
<path d="M6580 10538 c-32 -17 -70 -74 -70 -105 0 -64 60 -123 126 -123 110 0
160 139 76 214 -27 23 -99 31 -132 14z"/>
<path d="M7034 10506 c-28 -28 -34 -42 -34 -76 0 -34 6 -48 34 -76 36 -36 71
-43 120 -24 30 11 66 65 66 98 0 36 -27 80 -60 97 -49 25 -88 19 -126 -19z"/>
<path d="M7520 10503 c-20 -18 -33 -41 -37 -65 -5 -33 -2 -41 30 -73 46 -46
95 -49 138 -6 23 23 29 38 29 71 0 88 -95 131 -160 73z"/>
<path d="M7996 10495 c-58 -53 -20 -155 58 -155 53 0 91 37 91 90 0 34 -6 47
-28 66 -37 32 -86 32 -121 -1z"/>
<path d="M8475 10485 c-53 -52 -18 -135 56 -135 47 0 79 34 79 81 0 72 -84
106 -135 54z"/>
<path d="M8950 10478 c-49 -53 -5 -129 70 -118 26 3 60 43 60 70 0 61 -88 93
-130 48z"/>
<path d="M9436 10476 c-15 -14 -26 -35 -26 -46 0 -26 43 -70 68 -70 34 0 65
34 65 69 0 62 -65 90 -107 47z"/>
<path d="M9910 10470 c-11 -11 -20 -29 -20 -40 0 -27 35 -60 63 -60 50 0 76
70 39 103 -25 23 -58 21 -82 -3z"/>
<path d="M10387 10462 c-33 -36 -9 -82 42 -82 34 0 51 17 51 50 0 14 -5 31
-12 38 -18 18 -63 14 -81 -6z"/>
<path d="M10867 10462 c-22 -24 -21 -45 3 -67 26 -24 68 -13 76 21 4 17 1 31
-11 44 -23 25 -47 25 -68 2z"/>
<path d="M11342 10458 c-28 -28 -3 -72 39 -66 30 4 47 33 33 56 -14 21 -55 27
-72 10z"/>
<path d="M11820 10455 c-26 -32 13 -81 48 -59 34 22 22 74 -18 74 -10 0 -23
-7 -30 -15z"/>
<path d="M12297 10454 c-12 -12 -8 -41 7 -53 22 -18 58 4 54 32 -3 22 -45 36
-61 21z"/>
<path d="M3693 10145 c-124 -62 -156 -219 -65 -325 89 -105 230 -106 323 -3
120 133 20 353 -161 353 -29 0 -65 -9 -97 -25z"/>
<path d="M4185 10134 c-46 -23 -93 -74 -106 -112 -19 -57 -7 -137 27 -180 96
-120 272 -103 335 33 46 100 0 216 -103 260 -48 19 -115 19 -153 -1z"/>
<path d="M4650 10109 c-71 -41 -106 -134 -81 -212 16 -46 80 -104 126 -113 84
-15 166 21 201 89 34 65 17 163 -38 214 -51 47 -147 58 -208 22z"/>
<path d="M5140 10098 c-33 -17 -51 -35 -67 -68 -28 -55 -29 -92 -2 -146 39
-81 130 -112 209 -72 61 31 90 77 90 143 0 37 -6 62 -23 86 -24 37 -97 79
-137 79 -14 0 -46 -10 -70 -22z"/>
<path d="M5612 10081 c-43 -28 -72 -77 -72 -126 0 -104 117 -178 208 -131 54
28 75 62 80 125 4 58 3 61 -35 102 -36 38 -45 43 -94 46 -42 3 -61 0 -87 -16z"/>
<path d="M6093 10070 c-95 -57 -80 -203 25 -240 37 -13 47 -13 84 0 75 26 111
119 75 190 -32 63 -122 88 -184 50z"/>
<path d="M6583 10065 c-60 -26 -87 -98 -58 -158 21 -45 58 -69 106 -71 72 -2
122 47 122 119 0 50 -24 88 -68 109 -40 19 -60 20 -102 1z"/>
<path d="M7074 10059 c-43 -12 -66 -41 -71 -91 -11 -107 104 -161 183 -87 81
76 -3 209 -112 178z"/>
<path d="M7543 10045 c-40 -17 -69 -71 -59 -110 12 -47 49 -75 100 -75 37 0
48 5 70 31 44 52 30 125 -29 154 -39 18 -41 18 -82 0z"/>
<path d="M8025 10041 c-81 -33 -73 -154 11 -175 49 -13 114 39 114 90 0 28
-28 70 -55 82 -30 14 -42 14 -70 3z"/>
<path d="M8495 10028 c-31 -16 -45 -39 -45 -71 0 -40 14 -62 50 -77 35 -15 84
0 100 31 40 73 -35 156 -105 117z"/>
<path d="M8955 10005 c-14 -13 -25 -36 -25 -50 0 -14 11 -37 25 -50 13 -14 36
-25 50 -25 14 0 37 11 50 25 14 13 25 36 25 50 0 14 -11 37 -25 50 -13 14 -36
25 -50 25 -14 0 -37 -11 -50 -25z"/>
<path d="M9430 10000 c-40 -40 -9 -110 50 -110 29 0 70 38 70 65 0 7 -9 24
-21 39 -25 32 -70 35 -99 6z"/>
<path d="M9915 9996 c-30 -30 -31 -46 -7 -76 20 -25 63 -30 87 -10 18 15 20
74 3 88 -31 24 -57 23 -83 -2z"/>
<path d="M10384 9985 c-21 -33 -6 -72 31 -81 52 -13 86 53 47 89 -27 24 -59
21 -78 -8z"/>
<path d="M10859 9979 c-17 -33 3 -69 39 -69 33 0 52 16 52 45 0 29 -19 45 -52
45 -18 0 -31 -7 -39 -21z"/>
<path d="M11346 9984 c-9 -8 -16 -22 -16 -29 0 -7 7 -21 16 -29 8 -9 22 -16
29 -16 7 0 21 7 29 16 9 8 16 22 16 29 0 7 -7 21 -16 29 -8 9 -22 16 -29 16
-7 0 -21 -7 -29 -16z"/>
<path d="M11815 9971 c-9 -28 5 -51 30 -51 29 0 48 24 40 50 -9 27 -61 28 -70
1z"/>
<path d="M12294 9976 c-11 -28 1 -51 25 -51 32 0 49 28 32 49 -17 20 -50 21
-57 2z"/>
<path d="M3727 9687 c-168 -53 -203 -280 -58 -382 39 -27 50 -30 120 -30 68 0
83 3 119 27 152 101 112 343 -64 387 -52 13 -68 13 -117 -2z"/>
<path d="M4207 9670 c-46 -14 -98 -60 -118 -104 -67 -149 58 -307 216 -273 94
20 162 111 153 207 -12 121 -136 205 -251 170z"/>
<path d="M4665 9641 c-48 -22 -69 -44 -90 -94 -21 -50 -19 -93 6 -144 53 -110
192 -132 280 -44 88 88 66 227 -44 280 -53 26 -99 26 -152 2z"/>
<path d="M5130 9618 c-57 -39 -75 -72 -75 -138 0 -44 5 -66 21 -86 53 -71 131
-92 206 -55 116 56 118 231 5 285 -50 23 -117 21 -157 -6z"/>
<path d="M5622 9613 c-52 -25 -77 -69 -77 -133 0 -86 56 -143 139 -143 86 0
146 59 146 144 0 109 -111 180 -208 132z"/>
<path d="M6125 9609 c-62 -19 -95 -64 -95 -131 0 -41 5 -54 34 -86 33 -35 38
-37 96 -37 58 0 63 2 96 37 28 32 34 45 34 84 0 76 -36 119 -115 137 -11 3
-33 1 -50 -4z"/>
<path d="M6555 9567 c-19 -19 -37 -46 -41 -61 -16 -64 52 -146 120 -146 45 0
95 34 113 77 32 78 -27 163 -114 163 -38 0 -50 -5 -78 -33z"/>
<path d="M7034 9556 c-27 -27 -34 -42 -34 -74 0 -82 82 -134 156 -98 104 49
67 206 -48 206 -32 0 -47 -7 -74 -34z"/>
<path d="M7529 9565 c-57 -31 -61 -114 -7 -160 34 -29 66 -32 108 -10 37 19
50 43 50 90 0 74 -82 118 -151 80z"/>
<path d="M8003 9555 c-50 -35 -46 -123 7 -150 41 -21 75 -19 107 9 61 52 21
156 -60 156 -18 0 -42 -7 -54 -15z"/>
<path d="M8472 9537 c-69 -74 32 -179 112 -116 35 27 36 86 3 117 -32 30 -87
29 -115 -1z"/>
<path d="M8975 9548 c-50 -27 -60 -80 -22 -116 33 -31 80 -29 106 4 34 43 26
86 -20 109 -33 18 -38 18 -64 3z"/>
<path d="M9435 9525 c-27 -26 -31 -46 -14 -76 37 -71 147 -19 119 56 -18 48
-68 58 -105 20z"/>
<path d="M9904 9514 c-37 -55 25 -117 80 -80 18 11 26 25 26 45 0 59 -75 84
-106 35z"/>
<path d="M10403 9530 c-48 -19 -31 -100 22 -100 52 0 75 65 33 94 -25 18 -25
18 -55 6z"/>
<path d="M10864 9509 c-17 -19 -17 -23 -3 -47 18 -33 44 -39 70 -16 23 21 24
47 3 68 -21 22 -47 20 -70 -5z"/>
<path d="M11352 9514 c-38 -26 -22 -74 24 -74 45 0 58 50 19 76 -18 12 -24 11
-43 -2z"/>
<path d="M11822 9508 c-32 -32 2 -79 43 -60 39 18 27 72 -15 72 -9 0 -21 -5
-28 -12z"/>
<path d="M12300 9505 c-19 -23 -8 -50 22 -53 34 -4 50 34 22 55 -23 17 -29 16
-44 -2z"/>
<path d="M3691 9199 c-130 -66 -153 -247 -44 -351 31 -30 100 -58 143 -58 43
0 112 28 143 58 101 95 90 258 -21 337 -59 41 -156 47 -221 14z"/>
<path d="M4172 9179 c-117 -58 -136 -231 -37 -318 156 -136 392 37 306 224
-49 105 -164 145 -269 94z"/>
<path d="M4690 9178 c-119 -34 -169 -181 -94 -275 58 -72 138 -91 221 -54 127
58 129 252 3 316 -38 19 -91 24 -130 13z"/>
<path d="M5138 9150 c-99 -54 -116 -179 -35 -258 36 -35 95 -52 144 -41 138
29 169 205 51 292 -39 29 -114 32 -160 7z"/>
<path d="M5600 9124 c-45 -39 -63 -79 -57 -132 6 -53 31 -91 78 -114 129 -66
265 85 188 209 -27 44 -66 63 -128 63 -39 0 -56 -6 -81 -26z"/>
<path d="M6089 9117 c-91 -61 -76 -194 26 -233 43 -16 48 -16 91 1 57 22 84
62 84 126 0 104 -115 164 -201 106z"/>
<path d="M6572 9110 c-32 -20 -62 -71 -62 -106 0 -30 30 -80 59 -97 100 -59
221 41 178 146 -30 70 -111 96 -175 57z"/>
<path d="M7053 9100 c-38 -23 -53 -48 -53 -90 0 -95 106 -146 179 -84 61 51
48 150 -24 180 -45 19 -64 18 -102 -6z"/>
<path d="M7550 9103 c-30 -11 -60 -47 -66 -79 -17 -93 99 -153 167 -85 73 74
-4 199 -101 164z"/>
<path d="M8001 9073 c-64 -60 -29 -153 57 -153 91 0 122 124 41 165 -41 22
-65 18 -98 -12z"/>
<path d="M8475 9065 c-62 -62 2 -162 85 -134 82 29 57 159 -30 159 -19 0 -40
-9 -55 -25z"/>
<path d="M8951 9054 c-39 -50 -16 -108 46 -120 26 -5 37 -1 57 19 31 31 33 65
5 101 -15 19 -30 26 -54 26 -24 0 -39 -7 -54 -26z"/>
<path d="M9426 9048 c-21 -30 -20 -50 5 -82 26 -33 62 -34 94 -1 28 27 30 37
14 68 -16 30 -28 37 -66 37 -22 0 -37 -7 -47 -22z"/>
<path d="M9912 9047 c-26 -28 -27 -45 -6 -75 18 -26 65 -30 88 -6 24 23 20 70
-6 88 -31 22 -51 20 -76 -7z"/>
<path d="M10384 9035 c-20 -30 -11 -62 21 -77 52 -23 99 46 59 86 -23 24 -61
20 -80 -9z"/>
<path d="M10870 9040 c-24 -24 -25 -43 -4 -65 25 -25 67 -15 79 19 8 24 6 31
-14 47 -29 24 -36 24 -61 -1z"/>
<path d="M11342 9038 c-18 -18 -15 -42 9 -64 22 -20 43 -13 63 19 23 36 -41
76 -72 45z"/>
<path d="M11826 9037 c-36 -26 4 -84 42 -61 23 15 26 38 7 58 -20 19 -26 20
-49 3z"/>
<path d="M12294 9025 c-14 -37 26 -69 53 -42 22 22 8 57 -23 57 -14 0 -27 -7
-30 -15z"/>
<path d="M3715 8735 c-58 -20 -121 -93 -134 -154 -21 -97 26 -196 113 -240 39
-19 59 -22 109 -19 98 6 169 65 194 160 19 77 2 138 -56 198 -65 68 -139 86
-226 55z"/>
<path d="M4190 8714 c-145 -63 -163 -255 -32 -345 30 -20 48 -24 108 -24 65 0
76 3 111 31 76 60 102 157 64 239 -44 96 -156 140 -251 99z"/>
<path d="M4661 8692 c-125 -63 -134 -238 -15 -308 51 -30 125 -34 172 -10 70
36 110 121 93 197 -13 57 -38 90 -91 117 -53 26 -113 28 -159 4z"/>
<path d="M5174 8690 c-109 -24 -159 -164 -90 -254 32 -43 101 -71 153 -63 144
24 184 227 58 298 -38 21 -82 28 -121 19z"/>
<path d="M5620 8662 c-130 -65 -94 -256 51 -270 93 -9 159 49 159 139 0 112
-111 181 -210 131z"/>
<path d="M6125 8663 c-114 -31 -130 -194 -25 -248 86 -44 190 17 190 112 0 52
-19 94 -53 116 -27 18 -83 28 -112 20z"/>
<path d="M6608 8652 c-37 -4 -86 -55 -94 -97 -9 -49 21 -105 69 -129 69 -33
147 1 167 74 23 86 -50 164 -142 152z"/>
<path d="M7044 8622 c-97 -78 -22 -228 97 -193 120 36 92 211 -34 211 -25 0
-51 -8 -63 -18z"/>
<path d="M7527 8619 c-9 -5 -24 -24 -33 -41 -41 -79 35 -166 120 -138 104 34
78 191 -31 190 -21 0 -46 -5 -56 -11z"/>
<path d="M7995 8597 c-40 -34 -38 -92 4 -129 17 -15 40 -28 51 -28 51 0 100
49 100 99 0 11 -12 33 -26 50 -33 40 -89 43 -129 8z"/>
<path d="M8495 8608 c-75 -43 -49 -158 35 -158 82 0 112 118 39 155 -33 18
-47 18 -74 3z"/>
<path d="M8955 8585 c-30 -30 -32 -64 -4 -99 41 -53 129 -18 129 51 0 32 -42
73 -75 73 -14 0 -37 -11 -50 -25z"/>
<path d="M9432 8577 c-26 -27 -28 -54 -6 -85 15 -22 66 -30 90 -14 19 13 34
50 27 69 -19 55 -74 70 -111 30z"/>
<path d="M9904 8565 c-21 -31 -15 -53 19 -79 26 -19 30 -19 55 -5 33 18 42 68
17 93 -25 25 -72 20 -91 -9z"/>
<path d="M10390 8570 c-11 -11 -20 -26 -20 -33 0 -24 31 -57 55 -57 52 0 74
65 33 94 -30 21 -44 20 -68 -4z"/>
<path d="M10866 8565 c-21 -22 -20 -41 4 -65 25 -25 32 -25 61 -1 20 16 22 23
14 47 -12 34 -54 44 -79 19z"/>
<path d="M11346 8564 c-30 -30 -13 -74 29 -74 42 0 59 44 29 74 -8 9 -22 16
-29 16 -7 0 -21 -7 -29 -16z"/>
<path d="M11822 8558 c-18 -18 -14 -46 7 -58 25 -13 48 -4 56 21 12 38 -35 65
-63 37z"/>
<path d="M12302 8561 c-8 -4 -12 -19 -10 -32 4 -29 45 -34 61 -7 19 30 -19 60
-51 39z"/>
<path d="M3765 8273 c-122 -26 -188 -101 -188 -213 0 -122 91 -213 213 -213
120 0 211 89 212 207 1 59 -22 119 -59 158 -37 39 -131 71 -178 61z"/>
<path d="M4222 8250 c-198 -47 -202 -327 -4 -380 155 -41 294 129 222 270 -44
87 -131 131 -218 110z"/>
<path d="M4677 8226 c-21 -8 -48 -22 -59 -33 -29 -25 -58 -91 -58 -133 0 -41
29 -108 56 -132 29 -25 88 -48 126 -48 76 0 158 71 172 149 14 75 -34 158
-109 192 -47 22 -77 23 -128 5z"/>
<path d="M5145 8206 c-67 -29 -105 -106 -91 -181 8 -42 54 -98 96 -115 41 -17
121 -8 157 18 59 42 81 137 47 208 -33 69 -134 103 -209 70z"/>
<path d="M5620 8187 c-104 -55 -106 -196 -4 -254 47 -27 87 -29 134 -5 109 54
107 213 -3 262 -55 25 -75 25 -127 -3z"/>
<path d="M6069 8151 c-34 -34 -39 -44 -39 -86 0 -83 50 -135 130 -135 80 0
130 52 130 135 0 42 -5 52 -39 86 -35 35 -44 39 -91 39 -47 0 -56 -4 -91 -39z"/>
<path d="M6580 8167 c-31 -16 -70 -73 -70 -104 0 -13 7 -37 15 -53 52 -100
190 -91 225 14 31 96 -79 189 -170 143z"/>
<path d="M7064 8160 c-36 -14 -64 -59 -64 -102 0 -32 7 -47 34 -74 56 -56 135
-44 171 26 19 37 19 63 0 100 -26 49 -88 72 -141 50z"/>
<path d="M7521 8134 c-76 -64 -32 -174 70 -174 45 0 89 48 89 95 0 47 -13 71
-50 90 -42 22 -74 19 -109 -11z"/>
<path d="M8003 8132 c-32 -24 -44 -71 -28 -110 26 -60 97 -71 147 -22 26 27
30 36 25 68 -12 70 -91 106 -144 64z"/>
<path d="M8475 8115 c-51 -50 -17 -135 54 -135 49 0 81 32 81 81 0 72 -84 106
-135 54z"/>
<path d="M8952 8107 c-36 -38 -28 -88 19 -112 46 -25 108 10 109 61 1 64 -84
98 -128 51z"/>
<path d="M9436 8106 c-15 -14 -26 -34 -26 -46 0 -26 43 -70 68 -70 34 0 65 34
65 69 0 62 -65 90 -107 47z"/>
<path d="M9910 8100 c-11 -11 -20 -29 -20 -40 0 -27 35 -60 63 -60 50 0 76 70
39 103 -25 23 -58 21 -82 -3z"/>
<path d="M10385 8090 c-38 -42 14 -102 66 -76 27 13 37 59 18 82 -17 20 -63
17 -84 -6z"/>
<path d="M10867 8092 c-22 -24 -21 -45 3 -67 45 -40 105 20 65 65 -23 25 -47
25 -68 2z"/>
<path d="M11342 8088 c-28 -28 -3 -72 39 -66 30 4 47 33 33 56 -14 21 -55 27
-72 10z"/>
<path d="M11820 8085 c-26 -32 13 -81 48 -59 34 22 22 74 -18 74 -10 0 -23 -7
-30 -15z"/>
<path d="M12297 8084 c-12 -12 -8 -41 7 -53 22 -18 58 4 54 32 -3 22 -45 36
-61 21z"/>
<path d="M3705 7781 c-82 -37 -128 -108 -128 -196 0 -88 46 -159 128 -196 154
-71 331 74 294 241 -29 132 -174 206 -294 151z"/>
<path d="M4176 7757 c-65 -37 -99 -88 -104 -155 -16 -218 278 -295 369 -97 46
100 0 216 -103 260 -53 22 -116 19 -162 -8z"/>
<path d="M4655 7741 c-114 -70 -128 -203 -32 -288 84 -73 223 -48 273 50 34
65 17 163 -38 214 -49 46 -149 58 -203 24z"/>
<path d="M5168 7741 c-47 -15 -85 -49 -102 -91 -21 -54 -20 -85 5 -136 23 -49
67 -80 124 -89 51 -8 121 26 152 74 27 40 31 117 8 161 -33 63 -121 101 -187
81z"/>
<path d="M5612 7711 c-43 -28 -72 -77 -72 -126 0 -104 117 -178 208 -131 54
28 75 62 80 125 4 58 3 61 -35 102 -36 38 -45 43 -94 46 -42 3 -61 0 -87 -16z"/>
<path d="M6103 7705 c-104 -45 -94 -207 15 -245 37 -13 47 -13 84 0 110 39
119 202 13 246 -43 17 -71 17 -112 -1z"/>
<path d="M6580 7692 c-21 -10 -42 -32 -54 -55 -50 -104 59 -213 160 -160 93
48 92 173 -1 217 -42 20 -62 20 -105 -2z"/>
<path d="M7072 7689 c-38 -11 -72 -59 -72 -102 0 -69 64 -124 129 -111 39 8
91 66 91 100 0 81 -71 135 -148 113z"/>
<path d="M7550 7679 c-38 -15 -59 -39 -66 -74 -18 -97 103 -159 168 -86 38 42
38 90 1 130 -32 33 -67 43 -103 30z"/>
<path d="M8025 7671 c-78 -32 -76 -142 4 -172 51 -20 121 30 121 86 0 32 -30
73 -61 84 -36 13 -37 13 -64 2z"/>
<path d="M8495 7659 c-41 -24 -56 -68 -39 -114 10 -25 62 -47 95 -40 82 18 77
146 -6 160 -16 3 -39 0 -50 -6z"/>
<path d="M8955 7635 c-14 -13 -25 -36 -25 -50 0 -14 11 -37 25 -50 13 -14 36
-25 50 -25 14 0 37 11 50 25 14 13 25 36 25 50 0 14 -11 37 -25 50 -13 14 -36
25 -50 25 -14 0 -37 -11 -50 -25z"/>
<path d="M9430 7630 c-41 -41 -10 -110 49 -110 30 0 71 38 71 65 0 7 -9 24
-21 39 -25 32 -70 35 -99 6z"/>
<path d="M9915 7626 c-30 -30 -31 -46 -7 -76 20 -25 63 -30 87 -10 18 15 20
74 3 88 -31 24 -57 23 -83 -2z"/>
<path d="M10390 7620 c-11 -11 -20 -27 -20 -35 0 -21 36 -55 58 -55 24 0 52
31 52 57 0 23 -30 53 -53 53 -9 0 -26 -9 -37 -20z"/>
<path d="M10859 7609 c-17 -33 3 -69 39 -69 33 0 52 16 52 45 0 29 -19 45 -52
45 -18 0 -31 -7 -39 -21z"/>
<path d="M11346 7614 c-9 -8 -16 -22 -16 -29 0 -7 7 -21 16 -29 8 -9 22 -16
29 -16 7 0 21 7 29 16 9 8 16 22 16 29 0 7 -7 21 -16 29 -8 9 -22 16 -29 16
-7 0 -21 -7 -29 -16z"/>
<path d="M11825 7614 c-24 -24 -15 -58 16 -62 49 -6 64 44 20 67 -15 9 -23 7
-36 -5z"/>
<path d="M12294 7606 c-11 -28 1 -51 25 -51 32 0 49 28 32 49 -17 20 -50 21
-57 2z"/>
<path d="M3735 7319 c-126 -29 -197 -188 -137 -305 42 -82 113 -119 212 -112
215 15 268 304 74 402 -42 21 -100 27 -149 15z"/>
<path d="M4205 7298 c-157 -55 -183 -264 -43 -351 88 -55 207 -29 264 56 24
35 28 52 29 108 0 86 -33 139 -108 175 -56 25 -94 29 -142 12z"/>
<path d="M4665 7271 c-160 -73 -127 -305 48 -337 106 -19 225 101 201 203 -28
121 -143 183 -249 134z"/>
<path d="M5130 7248 c-57 -39 -75 -72 -75 -138 0 -63 16 -95 67 -133 41 -31
118 -34 165 -8 56 32 76 66 81 133 4 50 1 64 -21 97 -47 70 -151 94 -217 49z"/>
<path d="M5620 7241 c-47 -25 -71 -60 -77 -113 -9 -81 40 -145 124 -163 45 -9
117 24 143 67 76 125 -62 278 -190 209z"/>
<path d="M6135 7240 c-69 -15 -105 -61 -105 -135 0 -42 5 -52 40 -87 39 -39
42 -40 97 -36 49 4 60 9 90 41 27 31 33 44 33 83 0 91 -71 152 -155 134z"/>
<path d="M6556 7200 c-40 -36 -52 -76 -36 -123 35 -108 183 -115 227 -10 48
115 -97 215 -191 133z"/>
<path d="M7034 7186 c-27 -27 -34 -42 -34 -74 0 -82 82 -134 156 -98 104 49
67 206 -48 206 -32 0 -47 -7 -74 -34z"/>
<path d="M7529 7195 c-58 -32 -61 -114 -6 -161 64 -54 157 -8 157 77 0 79 -80
123 -151 84z"/>
<path d="M8003 7185 c-50 -35 -46 -123 7 -150 41 -21 75 -19 107 9 61 52 21
156 -60 156 -18 0 -42 -7 -54 -15z"/>
<path d="M8472 7167 c-69 -74 32 -179 112 -116 35 27 36 86 3 117 -32 30 -87
29 -115 -1z"/>
<path d="M8975 7178 c-50 -27 -60 -80 -22 -116 33 -31 80 -29 106 4 34 43 26
86 -20 109 -33 18 -38 18 -64 3z"/>
<path d="M9435 7155 c-32 -31 -32 -59 1 -91 27 -28 64 -27 93 1 23 22 18 75
-8 97 -31 25 -57 23 -86 -7z"/>
<path d="M9910 7150 c-11 -11 -20 -29 -20 -40 0 -27 35 -60 63 -60 50 0 76 70
39 103 -25 23 -58 21 -82 -3z"/>
<path d="M10403 7159 c-12 -4 -25 -20 -29 -34 -15 -61 80 -92 100 -32 17 47
-23 84 -71 66z"/>
<path d="M10867 7142 c-22 -24 -21 -45 1 -65 24 -22 45 -21 65 1 21 23 22 46
1 66 -21 21 -47 20 -67 -2z"/>
<path d="M11352 7144 c-38 -26 -22 -74 24 -74 45 0 58 50 19 76 -18 12 -24 11
-43 -2z"/>
<path d="M11820 7135 c-26 -32 13 -81 48 -59 34 22 22 74 -18 74 -10 0 -23 -7
-30 -15z"/>
<path d="M12300 7135 c-20 -25 -8 -50 25 -50 36 0 47 31 19 52 -23 17 -29 16
-44 -2z"/>
<path d="M3692 6829 c-85 -43 -131 -144 -111 -241 20 -90 116 -168 210 -168
90 0 189 79 208 168 19 89 -16 176 -90 228 -57 39 -154 45 -217 13z"/>
<path d="M4185 6817 c-40 -19 -85 -65 -101 -104 -29 -68 -7 -170 47 -220 98
-90 254 -59 310 62 38 82 12 179 -64 239 -31 25 -48 31 -100 33 -38 2 -74 -2
-92 -10z"/>
<path d="M4704 6810 c-128 -27 -186 -179 -107 -278 56 -71 137 -90 219 -53
102 46 131 183 58 271 -43 51 -107 73 -170 60z"/>
<path d="M5140 6778 c-77 -39 -109 -124 -76 -202 50 -120 219 -133 286 -23 28
46 27 124 -2 167 -53 77 -130 98 -208 58z"/>
<path d="M5600 6754 c-87 -74 -77 -197 20 -246 163 -82 296 152 144 253 -45
29 -124 26 -164 -7z"/>
<path d="M6094 6751 c-45 -28 -64 -59 -64 -109 0 -62 23 -100 76 -124 96 -42
184 17 184 125 0 99 -111 160 -196 108z"/>
<path d="M6572 6740 c-88 -55 -74 -181 23 -214 95 -33 184 54 153 149 -25 73
-112 105 -176 65z"/>
<path d="M7053 6730 c-38 -23 -53 -48 -53 -90 0 -95 106 -146 179 -84 61 51
48 150 -24 180 -45 19 -64 18 -102 -6z"/>
<path d="M7550 6733 c-56 -20 -83 -89 -56 -141 32 -61 108 -72 157 -23 73 74
-4 199 -101 164z"/>
<path d="M7999 6702 c-24 -22 -31 -36 -31 -65 0 -21 6 -45 13 -54 20 -23 67
-41 95 -35 29 5 74 56 74 82 0 51 -49 100 -99 100 -12 0 -35 -13 -52 -28z"/>
<path d="M8475 6695 c-45 -44 -26 -116 38 -138 22 -8 66 8 83 31 38 49 -4 132
-66 132 -19 0 -40 -9 -55 -25z"/>
<path d="M8951 6684 c-12 -15 -21 -38 -21 -51 0 -32 42 -73 75 -73 33 0 75 41
75 73 0 40 -36 77 -75 77 -24 0 -39 -7 -54 -26z"/>
<path d="M9430 6680 c-26 -26 -25 -51 1 -84 35 -44 92 -31 112 27 7 19 -8 56
-27 69 -21 14 -66 8 -86 -12z"/>
<path d="M9916 6679 c-30 -23 -33 -45 -10 -77 18 -26 65 -30 88 -6 24 23 20
70 -6 88 -29 21 -40 20 -72 -5z"/>
<path d="M10384 6665 c-20 -30 -11 -62 21 -77 52 -23 99 46 59 86 -23 24 -61
20 -80 -9z"/>
<path d="M10870 6670 c-24 -24 -25 -43 -4 -65 25 -25 67 -15 79 19 8 24 6 31
-14 47 -29 24 -36 24 -61 -1z"/>
<path d="M11342 6668 c-29 -29 7 -86 47 -73 26 8 38 50 21 70 -15 18 -51 20
-68 3z"/>
<path d="M11826 6667 c-36 -26 4 -84 42 -61 23 15 26 38 7 58 -20 19 -26 20
-49 3z"/>
<path d="M12293 6654 c-15 -39 38 -67 60 -32 8 12 7 21 -2 32 -17 21 -50 20
-58 0z"/>
<path d="M3715 6365 c-57 -20 -121 -93 -134 -153 -19 -89 16 -176 91 -228 37
-26 50 -29 118 -29 68 0 81 3 118 29 76 52 110 139 90 229 -8 37 -22 61 -57
97 -65 68 -139 86 -226 55z"/>
<path d="M4190 6344 c-145 -63 -163 -255 -32 -345 30 -20 48 -24 108 -24 65 0
76 3 111 31 76 60 102 157 64 239 -44 96 -156 140 -251 99z"/>
<path d="M4660 6321 c-125 -67 -133 -237 -14 -307 125 -73 267 9 267 153 0
128 -142 214 -253 154z"/>
<path d="M5173 6318 c-29 -6 -52 -20 -77 -48 -59 -66 -61 -153 -3 -214 60 -63
155 -72 217 -19 42 35 60 74 60 130 0 106 -88 173 -197 151z"/>
<path d="M5621 6292 c-47 -23 -72 -61 -78 -114 -6 -53 12 -93 57 -132 25 -21
42 -26 83 -26 88 0 147 57 147 140 0 112 -111 183 -209 132z"/>
<path d="M6103 6281 c-48 -22 -73 -63 -73 -118 0 -50 18 -82 59 -110 85 -58
201 2 201 104 0 108 -91 168 -187 124z"/>
<path d="M6595 6274 c-69 -23 -99 -90 -71 -157 41 -99 181 -98 223 1 39 93
-55 190 -152 156z"/>
<path d="M7051 6256 c-51 -28 -68 -112 -31 -158 70 -90 210 -35 196 77 -9 77
-96 119 -165 81z"/>
<path d="M7527 6249 c-9 -5 -24 -24 -33 -41 -42 -80 42 -173 126 -138 98 40
69 191 -37 190 -21 0 -46 -5 -56 -11z"/>
<path d="M7995 6225 c-39 -38 -37 -88 6 -127 45 -43 106 -33 134 21 21 42 19
65 -11 100 -34 41 -92 44 -129 6z"/>
<path d="M8501 6239 c-55 -22 -69 -92 -26 -134 51 -52 135 -15 135 60 0 33
-27 75 -49 75 -5 0 -15 2 -23 4 -7 3 -24 0 -37 -5z"/>
<path d="M8955 6215 c-30 -30 -32 -64 -4 -99 41 -53 129 -18 129 51 0 32 -42
73 -75 73 -14 0 -37 -11 -50 -25z"/>
<path d="M9431 6204 c-26 -33 -27 -58 -1 -84 20 -20 65 -26 86 -12 19 13 34
50 27 69 -20 58 -77 71 -112 27z"/>
<path d="M9904 6195 c-21 -31 -15 -53 19 -79 26 -19 30 -19 55 -5 33 18 42 68
17 93 -25 25 -72 20 -91 -9z"/>
<path d="M10390 6200 c-11 -11 -20 -26 -20 -33 0 -24 31 -57 55 -57 52 0 74
65 33 94 -30 21 -44 20 -68 -4z"/>
<path d="M10866 6195 c-21 -22 -20 -41 4 -65 25 -25 32 -25 61 -1 20 16 22 23
14 47 -12 34 -54 44 -79 19z"/>
<path d="M11347 6192 c-30 -33 -15 -72 28 -72 43 0 59 44 27 73 -24 22 -35 21
-55 -1z"/>
<path d="M11822 6188 c-32 -32 8 -80 48 -58 34 18 19 70 -20 70 -9 0 -21 -5
-28 -12z"/>
<path d="M12300 6185 c-19 -23 -8 -50 22 -53 19 -2 28 2 33 18 12 39 -29 66
-55 35z"/>
<path d="M3750 5898 c-64 -11 -120 -54 -150 -113 -72 -145 29 -309 190 -309
162 0 262 164 189 311 -41 83 -134 128 -229 111z"/>
<path d="M4230 5880 c-92 -16 -151 -83 -158 -178 -4 -73 25 -134 86 -177 84
-58 211 -31 269 57 38 57 40 155 3 209 -45 69 -122 102 -200 89z"/>
<path d="M4688 5860 c-46 -14 -85 -48 -107 -93 -26 -54 -27 -107 -1 -156 85
-168 335 -108 333 80 -1 79 -54 147 -131 169 -42 11 -56 11 -94 0z"/>
<path d="M5145 5836 c-94 -41 -124 -168 -58 -246 71 -85 200 -80 260 11 22 33
25 47 21 99 -4 49 -10 66 -34 91 -52 56 -125 73 -189 45z"/>
<path d="M5643 5829 c-104 -30 -136 -165 -58 -244 95 -94 245 -28 245 107 0
96 -93 164 -187 137z"/>
<path d="M6069 5781 c-35 -35 -39 -44 -39 -91 0 -47 4 -56 39 -91 34 -34 44
-39 86 -39 54 0 95 21 119 60 9 16 16 49 16 75 0 42 -5 52 -39 86 -35 35 -44
39 -91 39 -47 0 -56 -4 -91 -39z"/>
<path d="M6584 5800 c-55 -22 -87 -106 -60 -158 54 -104 194 -94 227 17 28 93
-74 179 -167 141z"/>
<path d="M7064 5790 c-36 -14 -64 -59 -64 -102 0 -32 7 -47 34 -74 44 -44 99
-47 145 -8 95 80 1 231 -115 184z"/>
<path d="M7522 5765 c-77 -65 -33 -175 68 -175 46 0 90 47 90 95 0 47 -13 71
-50 90 -42 22 -74 19 -108 -10z"/>
<path d="M8015 5768 c-33 -17 -45 -40 -45 -80 0 -84 91 -118 152 -58 26 27 30
36 25 68 -11 65 -77 101 -132 70z"/>
<path d="M8475 5745 c-53 -52 -18 -135 56 -135 47 0 79 34 79 82 0 70 -86 103
-135 53z"/>
<path d="M8952 5737 c-38 -40 -25 -95 27 -116 23 -10 34 -10 53 0 51 27 61 69
27 113 -27 34 -77 36 -107 3z"/>
<path d="M9452 5750 c-53 -22 -51 -97 3 -122 52 -24 106 32 85 87 -7 19 -50
49 -63 44 -1 0 -12 -4 -25 -9z"/>
<path d="M9910 5730 c-11 -11 -20 -29 -20 -40 0 -27 35 -60 63 -60 50 0 76 70
39 103 -25 23 -58 21 -82 -3z"/>
<path d="M10384 5715 c-20 -30 -11 -58 22 -74 51 -23 91 28 64 80 -16 28 -65
25 -86 -6z"/>
<path d="M10867 5722 c-22 -24 -21 -45 3 -67 45 -40 105 20 65 65 -23 25 -47
25 -68 2z"/>
<path d="M11342 5718 c-19 -19 -14 -45 10 -62 19 -13 25 -14 43 -2 25 16 31
42 15 61 -15 18 -52 19 -68 3z"/>
<path d="M11820 5715 c-26 -32 13 -81 48 -59 34 22 22 74 -18 74 -10 0 -23 -7
-30 -15z"/>
<path d="M12293 5704 c-6 -17 6 -45 23 -51 21 -7 47 23 40 45 -9 27 -53 30
-63 6z"/>
<path d="M3705 5411 c-70 -32 -108 -79 -124 -151 -37 -168 139 -313 294 -241
70 32 108 79 124 151 37 167 -140 312 -294 241z"/>
<path d="M4176 5387 c-22 -12 -53 -39 -70 -60 -28 -35 -31 -45 -31 -111 0 -64
3 -77 27 -109 41 -53 84 -80 138 -85 154 -15 264 136 201 273 -47 102 -172
145 -265 92z"/>
<path d="M4655 5372 c-114 -73 -129 -204 -31 -290 43 -38 71 -46 136 -40 91 9
154 80 154 173 0 100 -65 167 -168 173 -47 2 -68 -1 -91 -16z"/>
<path d="M5164 5369 c-71 -20 -124 -107 -110 -181 16 -83 75 -132 162 -132 90
0 154 67 154 162 0 63 -30 109 -90 140 -47 24 -67 25 -116 11z"/>
<path d="M5612 5340 c-18 -11 -41 -34 -52 -52 -40 -66 -17 -155 52 -199 26
-16 45 -19 87 -16 49 3 58 8 94 46 38 41 39 44 35 102 -3 45 -10 65 -29 85
-53 57 -127 70 -187 34z"/>
<path d="M6103 5335 c-69 -30 -95 -130 -50 -196 46 -69 142 -76 204 -14 28 28
33 40 33 82 0 60 -28 109 -75 129 -43 17 -71 17 -112 -1z"/>
<path d="M6605 5333 c-39 -10 -75 -44 -86 -82 -30 -102 70 -191 164 -146 46
22 70 59 70 110 0 50 -24 88 -68 109 -34 16 -45 17 -80 9z"/>
<path d="M7072 5319 c-38 -11 -72 -60 -72 -104 0 -68 68 -123 132 -108 62 15
103 95 76 149 -25 53 -81 78 -136 63z"/>
<path d="M7543 5305 c-32 -14 -63 -59 -63 -92 0 -33 37 -81 73 -92 97 -32 170
83 100 158 -34 36 -68 44 -110 26z"/>
<path d="M8025 5301 c-78 -32 -76 -142 4 -172 51 -20 121 30 121 85 0 31 -24
66 -55 81 -37 17 -42 17 -70 6z"/>
<path d="M8495 5288 c-41 -22 -56 -67 -39 -113 10 -25 62 -47 95 -40 70 16 83
117 18 150 -33 18 -47 18 -74 3z"/>
<path d="M8955 5265 c-14 -13 -25 -36 -25 -50 0 -14 11 -37 25 -50 13 -14 36
-25 50 -25 14 0 37 11 50 25 14 13 25 36 25 50 0 14 -11 37 -25 50 -13 14 -36
25 -50 25 -14 0 -37 -11 -50 -25z"/>
<path d="M9430 5258 c-40 -43 -11 -108 49 -108 30 0 71 38 71 65 0 7 -9 24
-21 39 -26 33 -70 35 -99 4z"/>
<path d="M9915 5256 c-14 -14 -25 -32 -25 -41 0 -28 48 -67 73 -59 36 11 47
25 47 59 0 34 -11 48 -47 59 -17 5 -29 1 -48 -18z"/>
<path d="M10390 5250 c-24 -24 -25 -38 -4 -68 18 -27 55 -29 77 -4 22 24 21
55 -1 75 -25 22 -48 21 -72 -3z"/>
<path d="M10859 5239 c-17 -33 3 -69 39 -69 33 0 52 16 52 45 0 29 -19 45 -52
45 -18 0 -31 -7 -39 -21z"/>
<path d="M11346 5244 c-9 -8 -16 -22 -16 -29 0 -7 7 -21 16 -29 8 -9 22 -16
29 -16 7 0 21 7 29 16 9 8 16 22 16 29 0 7 -7 21 -16 29 -8 9 -22 16 -29 16
-7 0 -21 -7 -29 -16z"/>
<path d="M11814 5236 c-12 -31 0 -51 30 -51 36 0 56 26 37 49 -17 20 -60 21
-67 2z"/>
<path d="M12294 5236 c-11 -28 1 -51 25 -51 32 0 49 28 32 49 -17 20 -50 21
-57 2z"/>
<path d="M3745 4951 c-104 -26 -168 -107 -168 -211 0 -121 91 -212 213 -212
52 0 114 23 148 55 86 80 86 236 0 313 -51 47 -133 70 -193 55z"/>
<path d="M4210 4929 c-90 -27 -146 -110 -138 -205 20 -238 365 -234 385 5 4
46 0 64 -19 101 -43 79 -145 123 -228 99z"/>
<path d="M4665 4901 c-48 -22 -69 -44 -90 -94 -32 -78 -5 -167 66 -214 117
-77 273 7 273 148 0 65 -40 131 -97 158 -53 26 -99 26 -152 2z"/>
<path d="M5131 4878 c-58 -39 -76 -72 -76 -138 0 -90 53 -149 143 -158 92 -8
162 51 170 143 8 100 -49 166 -148 173 -45 3 -61 0 -89 -20z"/>
<path d="M5622 4873 c-128 -63 -98 -252 44 -279 45 -8 118 26 144 68 75 124
-59 275 -188 211z"/>
<path d="M6089 4853 c-39 -24 -59 -65 -59 -118 0 -42 5 -52 39 -86 35 -35 44
-39 91 -39 47 0 56 4 91 39 34 34 39 44 39 86 0 84 -50 135 -132 135 -23 0
-55 -8 -69 -17z"/>
<path d="M6562 4835 c-43 -36 -58 -77 -44 -124 34 -112 184 -121 229 -14 46
110 -94 215 -185 138z"/>
<path d="M7034 4816 c-27 -27 -34 -42 -34 -74 0 -110 144 -151 201 -58 23 37
24 67 4 106 -21 40 -53 60 -98 60 -31 0 -46 -7 -73 -34z"/>
<path d="M7513 4805 c-32 -32 -35 -40 -30 -73 4 -24 17 -47 38 -66 27 -24 38
-27 73 -23 84 12 117 108 57 168 -43 43 -92 40 -138 -6z"/>
<path d="M7995 4805 c-56 -55 -16 -155 61 -155 51 0 89 38 89 90 0 34 -6 47
-28 66 -38 32 -90 32 -122 -1z"/>
<path d="M8471 4794 c-28 -36 -27 -79 4 -109 50 -51 135 -17 135 54 0 76 -94
112 -139 55z"/>
<path d="M8974 4805 c-74 -31 -48 -135 33 -135 55 0 92 70 59 112 -21 28 -58
38 -92 23z"/>
<path d="M9435 4785 c-32 -31 -32 -59 1 -91 27 -28 64 -27 93 1 23 22 18 75
-8 97 -31 25 -57 23 -86 -7z"/>
<path d="M9910 4780 c-11 -11 -20 -29 -20 -40 0 -27 35 -60 63 -60 50 0 76 70
39 103 -25 23 -58 21 -82 -3z"/>
<path d="M10386 4775 c-35 -35 -2 -89 50 -83 34 4 55 48 38 76 -15 23 -67 27
-88 7z"/>
<path d="M10867 4772 c-22 -24 -21 -45 1 -65 24 -22 45 -21 65 1 21 23 22 46
1 66 -21 21 -47 20 -67 -2z"/>
<path d="M11342 4768 c-28 -28 -3 -72 39 -66 30 4 47 33 33 56 -14 21 -55 27
-72 10z"/>
<path d="M11820 4765 c-26 -32 13 -81 48 -59 34 22 22 74 -18 74 -10 0 -23 -7
-30 -15z"/>
<path d="M12300 4765 c-20 -25 -8 -50 25 -50 36 0 47 31 19 52 -23 17 -29 16
-44 -2z"/>
<path d="M3726 4473 c-36 -10 -96 -55 -115 -87 -57 -92 -47 -190 28 -266 93
-96 222 -93 312 7 48 53 64 120 46 191 -25 96 -97 155 -192 158 -33 2 -69 0
-79 -3z"/>
<path d="M4185 4447 c-40 -19 -85 -65 -101 -104 -29 -68 -7 -170 47 -220 98
-90 254 -59 310 62 38 82 12 179 -64 239 -31 25 -48 31 -100 33 -38 2 -74 -2
-92 -10z"/>
<path d="M4643 4415 c-116 -70 -106 -244 18 -307 70 -37 173 -12 221 53 62 84
31 216 -63 264 -45 24 -127 19 -176 -10z"/>
<path d="M5140 4408 c-81 -42 -110 -130 -70 -212 28 -57 75 -87 139 -88 96 0
161 63 161 157 0 124 -121 199 -230 143z"/>
<path d="M5600 4384 c-87 -74 -77 -197 20 -246 163 -82 296 152 144 253 -45
29 -124 26 -164 -7z"/>
<path d="M6089 4377 c-41 -28 -59 -60 -59 -110 0 -78 52 -131 130 -131 80 0
130 52 130 137 0 102 -116 162 -201 104z"/>
<path d="M6580 4373 c-44 -23 -75 -81 -66 -126 19 -94 132 -131 202 -66 100
94 -14 255 -136 192z"/>
<path d="M7053 4360 c-38 -23 -53 -48 -53 -90 0 -65 43 -109 107 -110 116 0
154 154 50 203 -45 22 -65 21 -104 -3z"/>
<path d="M7550 4363 c-56 -20 -83 -89 -56 -141 20 -38 44 -52 91 -52 105 0
132 155 33 189 -33 12 -45 12 -68 4z"/>
<path d="M8001 4333 c-64 -60 -29 -153 58 -153 32 0 44 6 65 31 14 17 26 39
26 49 0 51 -49 100 -99 100 -12 0 -34 -12 -50 -27z"/>
<path d="M8475 4325 c-28 -27 -33 -79 -11 -107 21 -29 65 -41 98 -27 80 33 54
159 -32 159 -19 0 -40 -9 -55 -25z"/>
<path d="M8955 4315 c-14 -13 -25 -36 -25 -50 0 -33 42 -75 75 -75 33 0 75 42
75 75 0 33 -42 75 -75 75 -14 0 -37 -11 -50 -25z"/>
<path d="M9430 4310 c-27 -27 -25 -62 4 -89 31 -29 73 -25 99 10 47 64 -46
136 -103 79z"/>
<path d="M9915 4305 c-29 -28 -31 -42 -9 -73 18 -26 65 -30 88 -6 24 23 20 70
-6 88 -31 22 -45 20 -73 -9z"/>
<path d="M10384 4295 c-20 -30 -11 -62 21 -77 52 -23 99 46 59 86 -23 24 -61
20 -80 -9z"/>
<path d="M10883 4309 c-49 -18 -35 -89 18 -89 22 0 32 6 41 24 19 43 -15 82
-59 65z"/>
<path d="M11340 4295 c-7 -8 -10 -25 -6 -39 11 -45 71 -45 82 0 8 30 -11 54
-41 54 -12 0 -28 -7 -35 -15z"/>
<path d="M11825 4297 c-26 -20 -13 -67 18 -67 43 0 60 35 31 64 -19 19 -25 20
-49 3z"/>
<path d="M12297 4293 c-15 -15 -6 -52 14 -58 28 -9 53 16 44 44 -6 20 -43 29
-58 14z"/>
<path d="M3716 3995 c-160 -57 -188 -281 -47 -380 39 -27 50 -30 121 -30 71 0
82 3 121 30 142 100 113 322 -50 380 -53 18 -94 19 -145 0z"/>
<path d="M4185 3971 c-101 -46 -143 -166 -95 -267 38 -77 129 -118 225 -100
48 9 110 66 131 122 60 159 -107 316 -261 245z"/>
<path d="M4665 3953 c-65 -34 -105 -95 -105 -159 0 -157 202 -238 306 -122 56
62 64 151 20 219 -47 70 -151 99 -221 62z"/>
<path d="M5181 3949 c-39 -8 -76 -34 -105 -73 -31 -40 -29 -130 2 -174 93
-129 292 -67 292 92 0 105 -87 177 -189 155z"/>
<path d="M5621 3922 c-48 -24 -73 -62 -78 -119 -5 -53 17 -98 68 -135 56 -42
159 -17 200 48 57 92 -17 224 -126 224 -16 0 -45 -8 -64 -18z"/>
<path d="M6105 3911 c-99 -46 -102 -186 -5 -236 86 -44 190 17 190 112 0 62
-23 101 -73 124 -52 23 -62 23 -112 0z"/>
<path d="M6570 3893 c-35 -24 -48 -43 -55 -79 -14 -68 50 -144 120 -144 76 0
137 80 116 151 -23 77 -119 115 -181 72z"/>
<path d="M7051 3886 c-51 -28 -68 -112 -31 -158 70 -90 210 -35 196 77 -9 77
-96 119 -165 81z"/>
<path d="M7527 3879 c-9 -5 -24 -24 -33 -41 -42 -80 42 -173 126 -138 98 40
69 191 -37 190 -21 0 -46 -5 -56 -11z"/>
<path d="M7995 3855 c-28 -27 -34 -88 -12 -116 39 -50 115 -48 147 4 27 43 25
69 -6 106 -34 41 -92 44 -129 6z"/>
<path d="M8510 3873 c-61 -22 -79 -95 -35 -138 51 -52 135 -15 135 60 0 33
-27 75 -49 75 -5 0 -15 2 -23 4 -7 3 -20 2 -28 -1z"/>
<path d="M8973 3860 c-72 -30 -45 -140 34 -140 36 0 73 38 73 75 0 49 -59 85
-107 65z"/>
<path d="M9431 3834 c-25 -32 -26 -52 -5 -82 15 -22 66 -30 90 -14 23 15 34
50 24 76 -19 50 -77 61 -109 20z"/>
<path d="M9906 3828 c-22 -31 -20 -51 7 -76 28 -26 45 -27 75 -6 26 18 30 65
6 88 -23 24 -70 20 -88 -6z"/>
<path d="M10390 3830 c-24 -24 -25 -38 -4 -68 29 -41 94 -19 94 33 0 24 -33
55 -57 55 -7 0 -22 -9 -33 -20z"/>
<path d="M10866 3825 c-21 -22 -20 -41 4 -65 25 -25 32 -25 61 -1 20 16 22 23
14 47 -12 34 -54 44 -79 19z"/>
<path d="M11347 3822 c-30 -33 -15 -72 28 -72 43 0 59 44 27 73 -24 22 -35 21
-55 -1z"/>
<path d="M11822 3818 c-18 -18 -14 -46 7 -58 25 -13 48 -4 56 21 12 38 -35 65
-63 37z"/>
<path d="M12300 3815 c-19 -23 -8 -50 22 -53 19 -2 28 2 33 18 12 39 -29 66
-55 35z"/>
<path d="M3693 3509 c-56 -27 -89 -68 -108 -132 -59 -198 179 -357 339 -225
91 75 106 200 35 298 -56 77 -176 104 -266 59z"/>
<path d="M4158 3481 c-139 -88 -105 -309 55 -352 146 -39 284 104 237 246 -16
47 -66 104 -107 121 -57 24 -133 18 -185 -15z"/>
<path d="M4688 3490 c-72 -22 -128 -96 -128 -170 0 -41 29 -108 56 -132 29
-25 88 -48 126 -48 42 0 113 35 137 68 53 76 46 169 -18 233 -49 50 -112 67
-173 49z"/>
<path d="M5145 3466 c-17 -7 -43 -28 -58 -45 -85 -102 -10 -261 123 -261 162
0 220 195 88 293 -34 25 -113 32 -153 13z"/>
<path d="M5645 3459 c-40 -12 -58 -27 -84 -69 -55 -90 5 -206 112 -217 117
-12 199 122 136 224 -33 53 -105 80 -164 62z"/>
<path d="M6104 3441 c-42 -18 -74 -69 -74 -118 0 -103 92 -164 188 -124 44 18
72 67 72 125 0 38 -6 52 -33 82 -28 31 -41 37 -83 40 -27 2 -58 0 -70 -5z"/>
<path d="M6569 3417 c-39 -26 -64 -84 -55 -123 4 -15 22 -42 41 -61 28 -28 40
-33 78 -33 87 0 146 85 114 163 -30 71 -114 97 -178 54z"/>
<path d="M7064 3420 c-36 -14 -64 -59 -64 -102 0 -32 7 -47 34 -74 44 -44 99
-47 145 -8 95 80 1 231 -115 184z"/>
<path d="M7550 3413 c-30 -11 -60 -47 -66 -79 -11 -60 35 -113 99 -114 101 0
136 139 47 185 -30 15 -53 18 -80 8z"/>
<path d="M8009 3395 c-38 -20 -52 -67 -35 -110 25 -59 93 -74 143 -31 22 19
28 32 28 66 0 73 -70 111 -136 75z"/>
<path d="M8475 3375 c-53 -52 -18 -135 56 -135 47 0 79 34 79 82 0 70 -86 103
-135 53z"/>
<path d="M8952 3367 c-37 -39 -28 -88 20 -113 25 -13 35 -13 59 -3 52 21 63
68 28 113 -27 34 -77 36 -107 3z"/>
<path d="M9452 3380 c-53 -22 -51 -97 3 -122 52 -24 106 32 85 87 -7 19 -50
49 -63 44 -1 0 -12 -4 -25 -9z"/>
<path d="M9910 3360 c-24 -24 -25 -48 -4 -78 19 -27 64 -29 87 -4 24 26 21 68
-5 86 -30 21 -54 20 -78 -4z"/>
<path d="M10384 3345 c-32 -50 22 -103 72 -70 43 28 24 95 -26 95 -20 0 -35
-8 -46 -25z"/>
<path d="M10870 3350 c-25 -25 -25 -42 0 -65 45 -40 105 20 65 65 -23 25 -40
25 -65 0z"/>
<path d="M11342 3348 c-19 -19 -14 -45 10 -62 19 -13 25 -14 43 -2 25 16 31
42 15 61 -15 18 -52 19 -68 3z"/>
<path d="M11820 3345 c-26 -32 13 -81 48 -59 24 16 27 45 6 61 -23 17 -39 16
-54 -2z"/>
<path d="M12293 3334 c-8 -22 10 -49 32 -49 10 0 22 7 28 16 15 24 1 49 -28
49 -15 0 -28 -7 -32 -16z"/>
<path d="M3704 3041 c-163 -74 -170 -306 -11 -386 162 -80 345 60 306 234 -10
43 -39 94 -69 119 -60 51 -156 65 -226 33z"/>
<path d="M4190 3024 c-81 -35 -124 -107 -118 -195 9 -125 134 -208 252 -169
110 36 165 161 117 265 -44 96 -156 140 -251 99z"/>
<path d="M4665 3006 c-137 -63 -139 -251 -3 -322 34 -18 109 -18 151 0 120 50
137 221 31 302 -43 33 -130 43 -179 20z"/>
<path d="M5169 3001 c-68 -22 -119 -91 -119 -162 1 -88 91 -166 179 -155 50 7
104 43 126 86 23 44 19 121 -8 160 -38 58 -119 89 -178 71z"/>
<path d="M5612 2970 c-125 -76 -73 -270 73 -270 86 0 145 62 145 152 0 105
-126 174 -218 118z"/>
<path d="M6103 2965 c-69 -30 -95 -130 -50 -196 47 -70 144 -76 204 -12 28 29
33 42 33 81 0 59 -29 108 -75 128 -43 17 -71 17 -112 -1z"/>
<path d="M6603 2963 c-32 -6 -80 -57 -88 -93 -9 -40 10 -95 42 -120 79 -62
194 -9 197 91 2 82 -68 138 -151 122z"/>
<path d="M7083 2952 c-12 -2 -33 -14 -47 -27 -71 -66 -26 -189 68 -189 47 0
81 20 101 59 43 79 -29 171 -122 157z"/>
<path d="M7515 2916 c-52 -52 -37 -134 30 -162 98 -41 178 73 109 155 -22 26
-33 31 -70 31 -34 0 -51 -6 -69 -24z"/>
<path d="M8025 2931 c-81 -34 -73 -154 12 -176 53 -13 113 37 113 94 0 27 -49
79 -80 85 -14 3 -34 1 -45 -3z"/>
<path d="M8495 2918 c-41 -22 -56 -67 -39 -113 8 -19 55 -45 84 -45 31 0 70
44 70 79 0 43 -9 60 -41 76 -33 18 -47 18 -74 3z"/>
<path d="M8955 2895 c-14 -13 -25 -36 -25 -50 0 -33 42 -75 75 -75 33 0 75 42
75 75 0 33 -42 75 -75 75 -14 0 -37 -11 -50 -25z"/>
<path d="M9430 2888 c-40 -43 -11 -108 49 -108 30 0 71 38 71 65 0 7 -9 24
-21 39 -26 33 -70 35 -99 4z"/>
<path d="M9933 2899 c-48 -18 -52 -76 -8 -105 36 -24 79 -1 83 44 5 51 -29 78
-75 61z"/>
<path d="M10390 2880 c-24 -24 -25 -38 -4 -68 18 -27 55 -29 77 -4 22 24 21
55 -1 75 -25 22 -48 21 -72 -3z"/>
<path d="M10859 2869 c-17 -33 3 -69 39 -69 33 0 52 16 52 45 0 29 -19 45 -52
45 -18 0 -31 -7 -39 -21z"/>
<path d="M11346 2874 c-9 -8 -16 -22 -16 -29 0 -20 28 -45 50 -45 18 0 40 27
40 49 0 14 -29 41 -45 41 -7 0 -21 -7 -29 -16z"/>
<path d="M11814 2856 c-8 -34 2 -46 36 -46 33 0 50 31 30 55 -20 24 -59 19
-66 -9z"/>
<path d="M12294 2866 c-11 -28 1 -51 25 -51 32 0 49 28 32 49 -17 20 -50 21
-57 2z"/>
<path d="M3745 2581 c-104 -26 -167 -105 -168 -210 -1 -123 89 -213 213 -213
87 0 153 40 192 117 37 72 21 183 -35 243 -46 50 -139 79 -202 63z"/>
<path d="M4206 2556 c-93 -35 -140 -103 -134 -198 13 -186 248 -249 355 -95
24 34 28 50 28 107 0 57 -4 73 -28 107 -50 73 -145 107 -221 79z"/>
<path d="M4665 2532 c-48 -23 -69 -45 -90 -95 -33 -78 -5 -167 66 -214 58 -38
139 -39 192 -3 139 95 87 308 -79 326 -36 3 -60 0 -89 -14z"/>
<path d="M5145 2516 c-41 -18 -83 -69 -91 -111 -26 -141 118 -243 241 -170 51
29 75 75 75 142 0 113 -118 186 -225 139z"/>
<path d="M5620 2498 c-166 -86 -47 -335 124 -260 113 51 117 205 6 263 -46 25
-76 24 -130 -3z"/>
<path d="M6069 2461 c-35 -35 -39 -44 -39 -91 0 -47 4 -56 39 -91 35 -35 44
-39 91 -39 47 0 56 4 91 39 34 34 39 44 39 86 0 85 -50 135 -135 135 -42 0
-52 -5 -86 -39z"/>
<path d="M6563 2466 c-44 -37 -59 -78 -45 -125 34 -112 184 -121 229 -14 31
75 -19 152 -105 161 -41 3 -52 0 -79 -22z"/>
<path d="M7034 2446 c-28 -28 -34 -42 -34 -76 0 -34 6 -48 34 -76 38 -38 77
-44 126 -19 33 17 60 61 60 97 0 33 -36 87 -66 98 -49 19 -84 12 -120 -24z"/>
<path d="M7518 2441 c-27 -24 -33 -36 -33 -71 0 -35 6 -47 34 -72 29 -26 39
-30 75 -25 84 12 117 108 57 168 -40 40 -89 40 -133 0z"/>
<path d="M7995 2435 c-56 -55 -16 -155 61 -155 51 0 89 38 89 90 0 34 -6 47
-28 66 -38 32 -90 32 -122 -1z"/>
<path d="M8471 2424 c-28 -36 -27 -79 4 -109 52 -53 135 -18 135 56 0 74 -95
109 -139 53z"/>
<path d="M8950 2418 c-43 -46 -10 -118 55 -118 38 0 75 37 75 74 0 35 -36 66
-75 66 -22 0 -41 -8 -55 -22z"/>
<path d="M9435 2415 c-14 -13 -25 -33 -25 -45 0 -26 43 -70 68 -70 34 0 65 34
65 70 0 22 -7 39 -22 52 -31 25 -57 23 -86 -7z"/>
<path d="M9910 2410 c-11 -11 -20 -29 -20 -40 0 -27 35 -60 63 -60 50 0 76 70
39 103 -25 23 -58 21 -82 -3z"/>
<path d="M10387 2402 c-10 -10 -17 -25 -17 -34 0 -22 33 -48 61 -48 32 0 49
17 49 50 0 14 -5 31 -12 38 -18 18 -63 14 -81 -6z"/>
<path d="M10867 2402 c-22 -24 -21 -45 1 -65 23 -21 46 -22 66 -1 30 30 9 84
-33 84 -10 0 -25 -8 -34 -18z"/>
<path d="M11342 2398 c-28 -28 -3 -72 39 -66 30 4 47 33 33 56 -14 21 -55 27
-72 10z"/>
<path d="M11820 2395 c-26 -32 13 -81 48 -59 34 22 22 74 -18 74 -10 0 -23 -7
-30 -15z"/>
<path d="M12302 2398 c-30 -30 3 -77 40 -57 24 13 23 46 -1 59 -24 13 -24 13
-39 -2z"/>
<path d="M3693 2085 c-159 -80 -152 -312 11 -386 155 -70 332 75 295 241 -22
98 -111 170 -209 170 -29 0 -65 -9 -97 -25z"/>
<path d="M4185 2076 c-38 -17 -90 -72 -104 -109 -37 -97 14 -211 111 -252 157
-65 318 96 253 253 -42 100 -164 151 -260 108z"/>
<path d="M4704 2070 c-133 -28 -189 -187 -101 -287 99 -112 276 -68 308 78 16
68 -23 158 -81 189 -31 16 -94 26 -126 20z"/>
<path d="M5140 2038 c-82 -42 -110 -130 -69 -214 72 -151 299 -96 299 71 0
124 -121 199 -230 143z"/>
<path d="M5612 2020 c-18 -11 -41 -34 -52 -52 -40 -66 -16 -156 52 -198 123
-75 265 64 202 196 -33 69 -133 96 -202 54z"/>
<path d="M6093 2010 c-88 -53 -82 -190 10 -233 43 -21 67 -21 112 -3 46 20 75
69 75 127 0 101 -110 162 -197 109z"/>
<path d="M6580 2002 c-45 -22 -75 -79 -66 -126 14 -75 100 -121 165 -88 97 48
100 178 4 218 -43 18 -61 18 -103 -4z"/>
<path d="M7064 1996 c-41 -18 -64 -52 -64 -94 0 -67 42 -111 107 -112 116 0
154 154 50 203 -42 20 -52 20 -93 3z"/>
<path d="M7550 1993 c-56 -20 -83 -89 -56 -141 20 -38 44 -52 91 -52 79 0 126
103 74 159 -32 34 -73 47 -109 34z"/>
<path d="M8001 1964 c-26 -21 -31 -33 -31 -68 0 -86 95 -121 152 -57 15 17 28
40 28 51 0 51 -49 100 -99 100 -11 0 -33 -12 -50 -26z"/>
<path d="M8475 1955 c-46 -45 -24 -125 39 -141 28 -7 81 18 90 41 22 60 -16
125 -74 125 -19 0 -40 -9 -55 -25z"/>
<path d="M8955 1945 c-14 -13 -25 -36 -25 -50 0 -33 42 -75 75 -75 33 0 75 42
75 75 0 33 -42 75 -75 75 -14 0 -37 -11 -50 -25z"/>
<path d="M9430 1940 c-23 -23 -25 -42 -9 -73 16 -29 28 -37 60 -37 52 0 81 62
48 103 -25 33 -70 36 -99 7z"/>
<path d="M9916 1939 c-30 -23 -33 -45 -10 -77 18 -26 65 -30 88 -6 24 23 20
70 -6 88 -29 21 -40 20 -72 -5z"/>
<path d="M10384 1925 c-20 -30 -11 -62 21 -77 52 -23 99 46 59 86 -23 24 -61
20 -80 -9z"/>
<path d="M10883 1940 c-48 -19 -36 -90 16 -90 16 0 34 7 41 14 29 36 -13 93
-57 76z"/>
<path d="M11340 1920 c-21 -40 12 -80 54 -64 22 8 31 50 16 69 -18 22 -57 19
-70 -5z"/>
<path d="M11826 1927 c-36 -26 4 -84 42 -61 23 15 26 38 7 58 -20 19 -26 20
-49 3z"/>
<path d="M12297 1924 c-15 -16 -7 -53 14 -59 30 -10 58 19 43 43 -12 18 -45
28 -57 16z"/>
<path d="M3715 1624 c-159 -58 -186 -280 -46 -379 39 -27 50 -30 121 -30 71 0
82 3 121 30 116 82 123 253 14 343 -62 51 -135 63 -210 36z"/>
<path d="M4196 1606 c-155 -58 -169 -284 -22 -356 49 -23 122 -26 169 -6 71
29 124 121 114 201 -13 123 -145 204 -261 161z"/>
<path d="M4665 1584 c-43 -22 -64 -44 -86 -86 -25 -48 -24 -101 2 -155 53
-109 193 -132 280 -44 88 88 66 227 -44 280 -51 25 -111 27 -152 5z"/>
<path d="M5130 1558 c-57 -39 -75 -72 -75 -137 0 -47 5 -64 27 -93 96 -125
288 -61 288 96 0 94 -62 156 -156 156 -37 0 -60 -6 -84 -22z"/>
<path d="M5621 1552 c-74 -37 -102 -127 -61 -199 28 -50 69 -75 124 -75 88 0
146 57 146 143 0 80 -67 149 -145 149 -16 0 -45 -8 -64 -18z"/>
<path d="M6105 1541 c-48 -22 -75 -65 -75 -118 0 -50 18 -82 59 -110 85 -58
201 2 201 104 0 77 -36 121 -115 137 -19 4 -44 -1 -70 -13z"/>
<path d="M6556 1509 c-21 -18 -38 -43 -41 -63 -14 -70 49 -146 120 -146 76 0
137 80 116 151 -27 88 -127 118 -195 58z"/>
<path d="M7054 1519 c-48 -24 -70 -112 -38 -157 19 -27 65 -52 96 -52 35 0 83
34 97 69 39 94 -61 185 -155 140z"/>
<path d="M7524 1502 c-95 -76 -3 -224 104 -168 38 20 52 44 52 91 0 76 -98
124 -156 77z"/>
<path d="M7995 1485 c-24 -23 -29 -40 -26 -75 9 -82 119 -107 162 -37 26 43
24 70 -7 106 -34 41 -92 44 -129 6z"/>
<path d="M8510 1503 c-61 -22 -79 -95 -35 -138 50 -51 135 -17 135 54 0 53
-55 100 -100 84z"/>
<path d="M8973 1490 c-46 -19 -57 -83 -20 -118 33 -31 80 -29 106 4 34 43 26
86 -20 109 -32 17 -35 17 -66 5z"/>
<path d="M9431 1464 c-24 -30 -26 -46 -10 -75 36 -68 147 -16 119 55 -19 50
-77 60 -109 20z"/>
<path d="M9906 1458 c-22 -31 -20 -51 7 -76 28 -26 45 -27 75 -6 26 18 30 65
6 88 -23 24 -70 20 -88 -6z"/>
<path d="M10390 1460 c-24 -24 -25 -38 -4 -68 29 -41 94 -19 94 33 0 24 -33
55 -57 55 -7 0 -22 -9 -33 -20z"/>
<path d="M10866 1454 c-23 -23 -20 -51 9 -70 23 -15 27 -15 50 0 27 18 31 36
15 67 -13 23 -53 25 -74 3z"/>
<path d="M11352 1454 c-37 -26 -23 -74 23 -74 43 0 59 44 27 73 -23 21 -22 21
-50 1z"/>
<path d="M11822 1448 c-28 -28 -1 -75 37 -63 11 3 23 15 26 26 12 38 -35 65
-63 37z"/>
<path d="M12300 1445 c-19 -23 -8 -50 22 -53 19 -2 28 2 33 18 12 39 -29 66
-55 35z"/>
<path d="M3692 1139 c-85 -43 -131 -144 -111 -242 9 -39 22 -61 58 -97 174
-174 449 26 340 247 -36 71 -92 106 -177 111 -54 2 -76 -1 -110 -19z"/>
<path d="M4172 1119 c-152 -76 -125 -315 40 -359 158 -43 297 118 229 265 -49
105 -164 145 -269 94z"/>
<path d="M4685 1118 c-50 -18 -82 -46 -104 -91 -26 -53 -26 -99 -2 -152 22
-48 44 -69 94 -90 50 -21 93 -19 145 6 61 30 95 84 95 152 0 86 -51 154 -131
177 -44 12 -58 12 -97 -2z"/>
<path d="M5144 1096 c-17 -8 -44 -31 -60 -52 -24 -31 -29 -47 -29 -95 0 -43 5
-65 21 -86 35 -47 82 -73 131 -73 165 0 225 194 91 293 -34 25 -113 32 -154
13z"/>
<path d="M5655 1090 c-161 -37 -147 -270 18 -287 85 -8 157 59 157 146 0 95
-83 163 -175 141z"/>
<path d="M6094 1061 c-46 -28 -64 -60 -64 -110 0 -53 29 -104 68 -119 58 -22
72 -23 116 -3 53 23 76 61 76 126 0 37 -6 52 -33 81 -28 31 -41 37 -83 41 -37
3 -57 -1 -80 -16z"/>
<path d="M6572 1050 c-40 -25 -66 -81 -57 -126 3 -20 20 -45 41 -63 68 -60
168 -30 195 58 21 71 -40 151 -116 151 -16 0 -45 -9 -63 -20z"/>
<path d="M7064 1050 c-36 -14 -64 -59 -64 -102 0 -32 7 -47 34 -74 44 -44 99
-47 145 -8 95 80 1 231 -115 184z"/>
<path d="M7550 1043 c-30 -11 -60 -47 -66 -79 -11 -60 35 -113 99 -114 101 0
136 139 47 185 -30 15 -53 18 -80 8z"/>
<path d="M8015 1028 c-32 -19 -44 -40 -45 -81 0 -84 100 -120 155 -55 22 26
26 39 21 67 -10 64 -77 100 -131 69z"/>
<path d="M8475 1005 c-53 -52 -18 -135 56 -135 47 0 79 34 79 82 0 70 -86 103
-135 53z"/>
<path d="M8951 994 c-53 -67 13 -148 88 -110 46 24 54 67 20 110 -15 19 -30
26 -54 26 -24 0 -39 -7 -54 -26z"/>
<path d="M9450 1007 c-38 -19 -48 -61 -23 -95 23 -31 52 -39 83 -22 48 26 44
96 -7 119 -29 13 -23 13 -53 -2z"/>
<path d="M9910 990 c-24 -24 -25 -48 -4 -78 18 -26 65 -30 88 -6 24 23 20 70
-6 88 -30 21 -54 20 -78 -4z"/>
<path d="M10385 980 c-23 -25 -13 -67 20 -82 52 -23 100 46 59 86 -21 22 -57
20 -79 -4z"/>
<path d="M10870 980 c-24 -24 -25 -43 -4 -64 30 -31 84 -9 84 34 0 17 -34 50
-52 50 -5 0 -17 -9 -28 -20z"/>
<path d="M11342 978 c-18 -18 -15 -43 8 -63 18 -17 21 -17 45 -1 40 27 28 76
-20 76 -12 0 -26 -5 -33 -12z"/>
<path d="M11820 975 c-26 -32 13 -81 48 -59 24 16 27 45 6 61 -23 17 -39 16
-54 -2z"/>
<path d="M12294 965 c-14 -37 26 -69 53 -42 22 22 8 57 -23 57 -14 0 -27 -7
-30 -15z"/>
<path d="M3705 671 c-165 -75 -173 -305 -14 -385 166 -83 346 56 307 237 -19
92 -113 167 -208 167 -25 0 -63 -9 -85 -19z"/>
<path d="M4190 654 c-73 -31 -120 -102 -120 -179 0 -58 19 -102 61 -142 42
-39 77 -53 135 -53 139 0 234 148 175 275 -44 96 -156 140 -251 99z"/>
<path d="M4665 636 c-62 -28 -105 -94 -105 -161 0 -92 80 -176 170 -177 120
-1 206 100 181 213 -12 54 -38 88 -87 116 -45 26 -113 30 -159 9z"/>
<path d="M5169 631 c-68 -22 -119 -91 -119 -162 1 -87 90 -165 179 -156 149
16 196 223 66 298 -38 22 -92 30 -126 20z"/>
<path d="M5620 602 c-102 -51 -106 -191 -8 -253 26 -15 45 -19 86 -16 46 3 59
9 90 41 35 34 37 40 37 100 0 55 -4 68 -25 91 -53 56 -116 70 -180 37z"/>
<path d="M6101 593 c-67 -33 -92 -124 -51 -190 68 -111 240 -64 240 66 0 58
-29 107 -75 127 -44 18 -72 17 -114 -3z"/>
<path d="M6603 593 c-32 -6 -80 -57 -88 -93 -21 -96 80 -177 168 -135 47 22
70 59 70 113 0 36 -5 49 -34 77 -34 33 -74 46 -116 38z"/>
<path d="M7047 569 c-25 -14 -47 -63 -47 -102 0 -74 84 -125 152 -93 108 51
74 207 -45 206 -23 0 -50 -5 -60 -11z"/>
<path d="M7527 559 c-50 -29 -58 -116 -14 -156 94 -86 223 38 141 136 -21 26
-33 31 -67 31 -23 0 -50 -5 -60 -11z"/>
<path d="M8034 562 c-35 -5 -66 -46 -66 -87 0 -93 125 -126 167 -44 21 40 19
63 -10 97 -25 30 -52 40 -91 34z"/>
<path d="M8495 548 c-31 -18 -44 -40 -45 -74 0 -43 27 -73 72 -80 30 -5 41 -2
62 19 42 42 35 107 -15 132 -33 18 -47 18 -74 3z"/>
<path d="M8955 525 c-14 -13 -25 -36 -25 -50 0 -33 42 -75 75 -75 33 0 75 42
75 75 0 33 -42 75 -75 75 -14 0 -37 -11 -50 -25z"/>
<path d="M9430 518 c-25 -28 -26 -62 0 -88 29 -29 74 -26 99 7 51 64 -43 141
-99 81z"/>
<path d="M9904 505 c-21 -32 -7 -69 30 -87 52 -23 95 37 66 93 -16 30 -75 26
-96 -6z"/>
<path d="M10390 510 c-24 -24 -25 -38 -4 -68 18 -27 55 -29 77 -4 22 24 21 55
-1 75 -25 22 -48 21 -72 -3z"/>
<path d="M10859 499 c-14 -27 1 -64 30 -72 44 -11 81 49 49 81 -20 20 -66 14
-79 -9z"/>
<path d="M11346 504 c-19 -18 -20 -28 -6 -55 19 -35 80 -18 80 22 0 21 -26 49
-45 49 -7 0 -21 -7 -29 -16z"/>
<path d="M11816 494 c-10 -27 -7 -43 13 -54 11 -5 26 -7 35 -4 21 8 30 42 16
59 -16 20 -56 19 -64 -1z"/>
<path d="M12294 496 c-11 -28 1 -51 25 -51 32 0 49 28 32 49 -17 20 -50 21
-57 2z"/>
<path d="M3750 210 c-90 -17 -155 -84 -173 -177 l-6 -33 218 0 218 0 -7 38
c-22 120 -131 194 -250 172z"/>
<path d="M4225 191 c-80 -20 -140 -80 -152 -155 l-6 -36 198 0 198 0 -6 36
c-17 101 -134 178 -232 155z"/>
<path d="M4665 162 c-48 -23 -69 -45 -90 -95 -29 -70 -35 -67 165 -67 l180 0
-6 28 c-28 119 -146 182 -249 134z"/>
<path d="M5130 138 c-43 -29 -68 -65 -76 -105 l-6 -33 162 0 163 0 -6 34 c-8
48 -34 84 -78 107 -52 26 -117 25 -159 -3z"/>
<path d="M5625 132 c-45 -21 -72 -56 -82 -102 l-5 -30 146 0 c141 0 146 1 146
20 0 89 -117 153 -205 112z"/>
<path d="M6069 91 c-25 -25 -39 -48 -39 -65 l0 -26 130 0 130 0 0 26 c0 17
-14 40 -39 65 -35 35 -44 39 -91 39 -47 0 -56 -4 -91 -39z"/>
<path d="M6566 99 c-26 -20 -56 -68 -56 -89 0 -6 45 -10 126 -10 125 0 125 0
119 23 -25 85 -125 126 -189 76z"/>
<path d="M7034 76 c-19 -19 -34 -43 -34 -55 0 -20 5 -21 110 -21 121 0 124 2
90 58 -38 62 -114 70 -166 18z"/>
<path d="M7514 66 c-58 -58 -49 -66 66 -66 95 0 100 1 100 21 0 11 -13 34 -29
50 -42 42 -92 40 -137 -5z"/>
<path d="M7995 65 c-14 -13 -25 -33 -25 -45 0 -19 6 -20 91 -20 89 0 90 0 84
23 -19 64 -104 89 -150 42z"/>
<path d="M8471 54 c-37 -47 -29 -54 59 -54 71 0 80 2 80 18 0 30 -42 62 -82
62 -28 0 -42 -7 -57 -26z"/>
<path d="M8950 50 c-39 -39 -27 -50 55 -50 41 0 75 3 75 6 0 11 -23 49 -34 56
-22 15 -76 8 -96 -12z"/>
<path d="M9435 45 c-39 -38 -32 -45 44 -45 65 0 69 1 64 20 -6 24 -40 50 -66
50 -10 0 -29 -11 -42 -25z"/>
<path d="M9910 40 c-32 -32 -24 -40 40 -40 65 0 76 12 42 43 -25 23 -58 21
-82 -3z"/>
<path d="M10387 32 c-26 -28 -21 -32 38 -32 59 0 60 1 45 31 -14 25 -61 25
-83 1z"/>
<path d="M10867 32 c-26 -28 -21 -32 33 -32 52 0 60 8 34 34 -21 21 -47 20
-67 -2z"/>
<path d="M11342 28 c-21 -21 -13 -28 33 -28 46 0 54 7 33 28 -15 15 -51 15
-66 0z"/>
<path d="M11822 28 c-21 -21 -13 -28 28 -28 41 0 49 7 28 28 -15 15 -41 15
-56 0z"/>
<path d="M12307 29 c-28 -16 -20 -29 18 -29 38 0 46 13 17 29 -11 6 -24 6 -35
0z"/>
</g>
</svg>
